<svg xmlns="http://www.w3.org/2000/svg" xmlns:svg="http://www.w3.org/2000/svg" id="svg226967" width="816.288" height="1056.288" version="1.0"><path id="path226449" d="M 0.1320165,0.132024 L 816.05998,0.132024 L 816.05998,1056.06 L 0.1320165,1056.06 L 0.1320165,0.132024 z" style="fill:none;stroke:#1f1a17;stroke-width:.26403299px;stroke-linecap:round;stroke-linejoin:round;stroke-miterlimit:4;stroke-dasharray:none;stroke-opacity:1"/><path id="path226451" d="M 80.068006,97.235676 L 104.029,81.458808" style="fill:none;stroke:#1f1a17;stroke-width:.26403299px;stroke-linecap:round;stroke-linejoin:round;stroke-miterlimit:4;stroke-dasharray:none;stroke-opacity:1"/><path id="path226453" d="M 82.708336,97.235676 L 104.029,83.307144 L 104.029,83.307144" style="fill:none;stroke:#1f1a17;stroke-width:.26403299px;stroke-linecap:round;stroke-linejoin:round;stroke-miterlimit:4;stroke-dasharray:none;stroke-opacity:1"/><path id="path226455" d="M 9.8352291,39.145116 L 104.029,39.145116 L 104.029,138.0971 L 9.8352291,138.0971 L 9.8352291,39.145116 z" style="fill:none;stroke:#1f1a17;stroke-width:.26403299px;stroke-linecap:round;stroke-linejoin:round;stroke-miterlimit:4;stroke-dasharray:none;stroke-opacity:1"/><path id="path226457" d="M 25.479184,53.931804 L 25.809225,53.601744 z" style="fill:none;stroke:#000;stroke-width:.26403299px;stroke-linecap:round;stroke-linejoin:round;stroke-miterlimit:4;stroke-dasharray:none;stroke-opacity:1"/><path id="path226459" d="M 25.479184,53.601744 L 25.809225,53.931804 z" style="fill:none;stroke:#000;stroke-width:.26403299px;stroke-linecap:round;stroke-linejoin:round;stroke-miterlimit:4;stroke-dasharray:none;stroke-opacity:1"/><path id="path226461" d="M 25.875234,53.79978 L 25.809225,53.601744 L 25.611201,53.535732 L 25.479184,53.601744 L 25.413176,53.79978 L 25.479184,53.931804 L 25.611201,53.997816 L 25.809225,53.931804 L 25.875234,53.79978 z" style="fill:none;stroke:#000;stroke-width:.26403299px;stroke-linecap:round;stroke-linejoin:round;stroke-miterlimit:4;stroke-dasharray:none;stroke-opacity:1"/><path id="path226463" d="M 18.812351,50.235132 L 21.650706,47.330604 z" style="fill:none;stroke:#1f1a17;stroke-width:.26403299px;stroke-linecap:round;stroke-linejoin:round;stroke-miterlimit:4;stroke-dasharray:none;stroke-opacity:1"/><path id="path226465" d="M 17.492186,48.980904 L 20.330541,46.076376 z" style="fill:none;stroke:#1f1a17;stroke-width:.26403299px;stroke-linecap:round;stroke-linejoin:round;stroke-miterlimit:4;stroke-dasharray:none;stroke-opacity:1"/><path id="path226467" d="M 17.492186,48.980904 L 18.812351,50.235132 z" style="fill:none;stroke:#1f1a17;stroke-width:.26403299px;stroke-linecap:round;stroke-linejoin:round;stroke-miterlimit:4;stroke-dasharray:none;stroke-opacity:1"/><path id="path226469" d="M 20.330541,46.076376 L 21.650706,47.330604 z" style="fill:none;stroke:#1f1a17;stroke-width:.26403299px;stroke-linecap:round;stroke-linejoin:round;stroke-miterlimit:4;stroke-dasharray:none;stroke-opacity:1"/><path id="path226471" d="M 19.472433,50.49918 L 21.188648,48.650844 L 23.036879,50.433168 L 24.159019,49.310964 L 26.073258,51.1593 L 24.88511,52.347516 L 26.337291,53.733768 L 27.52544,52.611564 L 29.505687,54.591924 L 26.601324,57.496452 L 23.300912,54.261864 L 19.472433,50.49918 z" style="fill:none;stroke:#1f1a17;stroke-width:.26403299px;stroke-linecap:round;stroke-linejoin:round;stroke-miterlimit:4;stroke-dasharray:none;stroke-opacity:1"/><path id="path226473" d="M 20.000499,49.905072 L 19.538442,49.442988 z" style="fill:none;stroke:#00f;stroke-width:.26403299px;stroke-linecap:round;stroke-linejoin:round;stroke-miterlimit:4;stroke-dasharray:none;stroke-opacity:1"/><path id="path226475" d="M 20.660582,49.244952 L 20.198524,48.782868 z" style="fill:none;stroke:#00f;stroke-width:.26403299px;stroke-linecap:round;stroke-linejoin:round;stroke-miterlimit:4;stroke-dasharray:none;stroke-opacity:1"/><path id="path226477" d="M 11.617452,39.739224 L 13.003625,39.211128 L 14.125765,39.145116 L 21.914739,39.145116 L 22.376796,39.475176 L 17.030128,43.831968 L 14.71984,46.010364 L 10.825353,50.301144 L 10.297287,49.905072 L 9.9672456,48.84888 L 9.9012374,44.426076 L 10.363295,41.389524 L 11.617452,39.739224 z" style="fill:none;stroke:#1f1a17;stroke-width:.26403299px;stroke-linecap:round;stroke-linejoin:round;stroke-miterlimit:4;stroke-dasharray:none;stroke-opacity:1"/><path id="path226479" d="M 18.284285,47.264592 L 19.142392,46.406436 L 19.868483,45.54828 L 20.462557,44.822148 L 20.990623,44.096016 L 21.386673,43.501908 L 21.650706,42.973812 L 21.716714,42.775776 L 21.716714,42.57774 L 21.716714,42.445716 L 21.650706,42.379704 L 21.584697,42.313692 L 21.452681,42.313692 L 21.254656,42.313692 L 21.056631,42.379704 L 20.528565,42.643752 L 19.934491,43.039824 L 19.2084,43.56792 L 18.48231,44.162028 L 17.624203,44.88816 L 16.766095,45.746316 L 15.973996,46.53846 L 15.247906,47.396616 L 14.587823,48.18876 L 14.059757,48.84888 L 13.729716,49.509 L 13.465683,49.971084 L 13.399675,50.16912 L 13.333666,50.367156 L 13.333666,50.49918 L 13.399675,50.631204 L 13.531691,50.631204 L 13.663708,50.697216 L 13.795724,50.631204 L 14.059757,50.565192 L 14.521815,50.301144 L 15.181897,49.905072 L 15.84198,49.442988 L 16.634079,48.782868 L 17.426178,48.056736 L 18.284285,47.264592 z" style="fill:none;stroke:#1f1a17;stroke-width:.26403299px;stroke-linecap:round;stroke-linejoin:round;stroke-miterlimit:4;stroke-dasharray:none;stroke-opacity:1"/><path id="path226481" d="M 9.8352291,60.533004 L 26.337291,60.665028 z" style="fill:none;stroke:#000;stroke-width:.26403299px;stroke-linecap:round;stroke-linejoin:round;stroke-miterlimit:4;stroke-dasharray:none;stroke-opacity:1"/><path id="path226483" d="M 26.601324,57.496452 L 27.591448,59.806872 z" style="fill:none;stroke:#000;stroke-width:.26403299px;stroke-linecap:round;stroke-linejoin:round;stroke-miterlimit:4;stroke-dasharray:none;stroke-opacity:1"/><path id="path226485" d="M 27.591448,59.806872 L 26.337291,60.599016 z" style="fill:none;stroke:#000;stroke-width:.26403299px;stroke-linecap:round;stroke-linejoin:round;stroke-miterlimit:4;stroke-dasharray:none;stroke-opacity:1"/><path id="path226487" d="M 96.042002,114.9929 L 57.031127,114.9929 L 57.097135,128.06328 L 56.899111,128.32733 L 56.635078,128.59138 L 56.371045,128.78941 L 56.041003,128.98745 L 55.314913,129.2515 L 54.588822,129.44953 L 53.92874,129.51554 L 53.202649,129.44953 L 52.476558,129.44953 L 51.816476,129.44953 L 49.37417,129.44953 L 46.997873,129.44953 L 44.687585,129.51554 L 42.575321,129.71358 L 39.670958,129.71358 L 37.624702,130.04364 L 37.096636,130.17566 L 36.502562,130.3737 L 35.842479,130.57174 L 35.314413,130.83578 L 34.390298,131.23186 L 33.466182,131.4959 L 33.004125,131.69394 L 32.542067,131.82596 L 32.080009,131.95799 L 31.551943,132.024 L 31.089885,132.024 L 30.627828,132.024 L 30.099762,131.95799 L 29.637704,131.82596" style="fill:none;stroke:#1f1a17;stroke-width:.26403299px;stroke-linecap:round;stroke-linejoin:round;stroke-miterlimit:4;stroke-dasharray:none;stroke-opacity:1"/><path id="path226489" d="M 9.9672456,129.64757 L 23.168895,129.91162 L 27.591448,131.03382 L 29.637704,131.82596" style="fill:none;stroke:#1f1a17;stroke-width:.26403299px;stroke-linecap:round;stroke-linejoin:round;stroke-miterlimit:4;stroke-dasharray:none;stroke-opacity:1"/><path id="path226491" d="M 18.680334,35.250408 L 18.680334,28.38516" style="fill:none;stroke:#24211d;stroke-width:.066008247px;stroke-linecap:round;stroke-linejoin:round;stroke-miterlimit:4;stroke-dasharray:none;stroke-opacity:1"/><path id="path226493" d="M 18.680334,20.595744 L 14.587823,28.781232 L 22.838854,28.781232 L 18.680334,20.595744 z" style="fill:#1f1a17;fill-rule:evenodd;fill-opacity:1;stroke:none"/><path id="path226495" d="M 34.456306,133.34424 L 34.918364,133.41025 L 35.314413,133.47626 L 35.644455,133.60829 L 35.974496,133.74031 L 36.238529,133.93835 L 36.436553,134.2024 L 36.502562,134.46644 L 36.56857,134.73049 L 36.502562,134.99454 L 36.436553,135.25859 L 36.238529,135.52264 L 35.974496,135.72067 L 35.644455,135.91871 L 35.314413,136.05073 L 34.918364,136.11674 L 34.456306,136.11674 L 34.060257,136.11674 L 33.664207,136.05073 L 33.334166,135.91871 L 33.004125,135.72067 L 32.740092,135.52264 L 32.542067,135.25859 L 32.476059,134.99454 L 32.41005,134.73049 L 32.476059,134.46644 L 32.542067,134.2024 L 32.740092,133.93835 L 33.004125,133.74031 L 33.334166,133.60829 L 33.664207,133.47626 L 34.060257,133.41025 L 34.456306,133.34424 z" style="fill:none;stroke:#1f1a17;stroke-width:.26403299px;stroke-linecap:round;stroke-linejoin:round;stroke-miterlimit:4;stroke-dasharray:none;stroke-opacity:1"/><path id="path226497" d="M 73.401173,97.235676 L 96.570068,97.235676 z" style="fill:none;stroke:#000;stroke-width:.26403299px;stroke-linecap:round;stroke-linejoin:round;stroke-miterlimit:4;stroke-dasharray:none;stroke-opacity:1"/><path id="path226499" d="M 76.833602,98.423892 L 96.570068,98.423892 z" style="fill:none;stroke:#000;stroke-width:.26403299px;stroke-linecap:round;stroke-linejoin:round;stroke-miterlimit:4;stroke-dasharray:none;stroke-opacity:1"/><path id="path226501" d="M 76.833602,98.423892 L 74.985371,98.423892 z" style="fill:none;stroke:#000;stroke-width:.26403299px;stroke-linecap:round;stroke-linejoin:round;stroke-miterlimit:4;stroke-dasharray:none;stroke-opacity:1"/><path id="path226503" d="M 71.750967,111.6923 L 71.684959,111.75832 L 71.684959,111.89034 L 71.684959,111.95635 L 71.684959,112.02236 L 71.684959,112.08838 L 71.684959,112.15439 L 71.684959,112.2204 L 71.684959,112.28641 L 71.684959,112.35242 L 71.684959,112.41844 L 71.684959,112.48445 L 71.684959,112.48445 L 71.684959,112.55046 L 71.684959,112.61647 L 71.684959,112.61647 L 71.684959,112.68248 L 71.750967,112.7485 L 71.750967,112.7485 L 71.750967,112.81451 L 71.750967,112.81451 L 71.816975,112.81451 L 71.816975,112.88052 L 71.816975,112.88052 L 71.882983,112.94653 L 71.882983,112.94653 L 71.948992,113.01254 L 72.015,113.01254 L 72.015,113.07856 L 72.147016,113.07856 L 72.213025,113.14457 L 72.345041,113.21058 L 72.477058,113.27659" style="fill:none;stroke:#000;stroke-width:.26403299px;stroke-linecap:round;stroke-linejoin:round;stroke-miterlimit:4;stroke-dasharray:none;stroke-opacity:1"/><path id="path226505" d="M 72.477058,113.27659 L 96.438052,113.40862 z" style="fill:none;stroke:#000;stroke-width:.26403299px;stroke-linecap:round;stroke-linejoin:round;stroke-miterlimit:4;stroke-dasharray:none;stroke-opacity:1"/><path id="path226507" d="M 99.078382,114.00272 L 99.012374,113.73868 L 98.946365,113.47463 L 98.814349,113.21058 L 98.616324,113.01254 L 98.418299,112.81451 L 98.154266,112.68248 L 97.890233,112.55046 L 97.560192,112.55046 L 97.296159,112.55046 L 96.966118,112.68248 L 96.702085,112.81451 L 96.50406,113.01254 L 96.306035,113.21058 L 96.174019,113.47463 L 96.108011,113.73868 L 96.108011,114.00272 L 96.108011,114.33278 L 96.174019,114.59683 L 96.306035,114.86088 L 96.50406,115.05892 L 96.702085,115.25695 L 96.966118,115.38898 L 97.296159,115.45499 L 97.560192,115.521 L 97.890233,115.45499 L 98.154266,115.38898 L 98.418299,115.25695 L 98.616324,115.05892 L 98.814349,114.86088 L 98.946365,114.59683 L 99.012374,114.33278 L 99.078382,114.00272 z" style="fill:none;stroke:#000;stroke-width:.26403299px;stroke-linecap:round;stroke-linejoin:round;stroke-miterlimit:4;stroke-dasharray:none;stroke-opacity:1"/><path id="path226509" d="M 99.210398,97.69776 L 99.210398,97.3677 L 99.078382,97.103652 L 98.946365,96.839604 L 98.814349,96.641568 L 98.550316,96.443532 L 98.286283,96.311508 L 98.02225,96.245496 L 97.758217,96.179484 L 97.428176,96.245496 L 97.164143,96.311508 L 96.90011,96.443532 L 96.702085,96.641568 L 96.50406,96.839604 L 96.372044,97.103652 L 96.306035,97.3677 L 96.240027,97.69776 L 96.306035,97.961808 L 96.372044,98.225856 L 96.50406,98.489904 L 96.702085,98.753952 L 96.90011,98.885976 L 97.164143,99.018 L 97.428176,99.150024 L 97.758217,99.150024 L 98.02225,99.150024 L 98.286283,99.018 L 98.550316,98.885976 L 98.814349,98.753952 L 98.946365,98.489904 L 99.078382,98.225856 L 99.210398,97.961808 L 99.210398,97.69776 z" style="fill:none;stroke:#000;stroke-width:.26403299px;stroke-linecap:round;stroke-linejoin:round;stroke-miterlimit:4;stroke-dasharray:none;stroke-opacity:1"/><path id="path226511" d="M 97.560192,99.150024 L 97.824225,99.150024 L 98.088258,99.084012 L 98.286283,99.018 L 98.550316,98.885976 L 98.682332,98.753952 L 98.880357,98.555916 L 99.012374,98.291868 L 99.14439,98.093832 L 99.14439,97.829784 L 99.210398,97.565736 L 99.14439,97.3677 L 99.14439,97.103652 L 99.012374,96.839604 L 98.880357,96.641568 L 98.748341,96.443532 L 98.550316,96.311508 L 98.286283,96.179484 L 98.088258,96.04746 L 97.824225,96.04746 L 97.560192,96.04746 L 97.296159,96.04746 L 97.098134,96.113472 L 96.834101,96.245496 L 96.636077,96.37752 L 96.50406,96.37752 L 96.834101,96.113472 L 97.098134,95.981448 L 97.296159,95.849424 L 97.428176,95.849424 L 97.560192,95.849424 L 97.6262,95.915436 L 97.692209,96.04746" style="fill:none;stroke:#000;stroke-width:.26403299px;stroke-linecap:round;stroke-linejoin:round;stroke-miterlimit:4;stroke-dasharray:none;stroke-opacity:1"/><path id="path226513" d="M 97.428176,96.113472 L 97.758217,96.113472 L 97.956242,96.179484 L 98.220275,96.311508 L 98.484308,96.443532 L 98.682332,96.575556 L 98.814349,96.773592 L 98.946365,96.971628 L 99.078382,97.235676 L 99.14439,97.499724 L 99.14439,97.763772 L 99.14439,98.02782 L 99.078382,98.291868 L 98.946365,98.489904 L 98.814349,98.753952 L 98.682332,98.951988 L 98.418299,99.084012 L 98.220275,99.216036 L 97.956242,99.34806 L 97.692209,99.414072 L 97.428176,99.414072 L 97.164143,99.34806 L 96.966118,99.282048 L 96.702085,99.216036 L 96.50406,99.018 L 96.372044,99.018 L 96.702085,99.282048 L 96.966118,99.480084 L 97.230151,99.546096 L 97.296159,99.612108 L 97.428176,99.546096 L 97.494184,99.480084 L 97.560192,99.414072" style="fill:none;stroke:#000;stroke-width:.26403299px;stroke-linecap:round;stroke-linejoin:round;stroke-miterlimit:4;stroke-dasharray:none;stroke-opacity:1"/><path id="path226515" d="M 97.428176,115.521 L 97.6262,115.521 L 97.890233,115.45499 L 98.154266,115.38898 L 98.352291,115.25695 L 98.550316,115.05892 L 98.682332,114.86088 L 98.814349,114.66284 L 98.946365,114.46481 L 99.012374,114.20076 L 99.012374,113.93671 L 99.012374,113.67266 L 98.946365,113.47463 L 98.814349,113.21058 L 98.682332,113.01254 L 98.550316,112.81451 L 98.352291,112.68248 L 98.154266,112.55046 L 97.890233,112.41844 L 97.6262,112.41844 L 97.428176,112.35242 L 97.164143,112.41844 L 96.90011,112.48445 L 96.702085,112.55046 L 96.438052,112.7485 L 96.372044,112.7485 L 96.702085,112.48445 L 96.90011,112.28641 L 97.164143,112.2204 L 97.296159,112.2204 L 97.362167,112.2204 L 97.428176,112.28641 L 97.494184,112.35242" style="fill:none;stroke:#000;stroke-width:.26403299px;stroke-linecap:round;stroke-linejoin:round;stroke-miterlimit:4;stroke-dasharray:none;stroke-opacity:1"/><path id="path226517" d="M 97.296159,112.48445 L 97.560192,112.48445 L 97.824225,112.55046 L 98.02225,112.61647 L 98.286283,112.7485 L 98.484308,112.94653 L 98.682332,113.14457 L 98.814349,113.3426 L 98.880357,113.60665 L 98.946365,113.8707 L 99.012374,114.13475 L 98.946365,114.3988 L 98.880357,114.66284 L 98.814349,114.86088 L 98.682332,115.12493 L 98.484308,115.32296 L 98.286283,115.45499 L 98.02225,115.58701 L 97.824225,115.71904 L 97.560192,115.71904 L 97.296159,115.78505 L 97.032126,115.71904 L 96.768093,115.65302 L 96.50406,115.521 L 96.306035,115.38898 L 96.174019,115.32296 L 96.50406,115.65302 L 96.768093,115.85106 L 97.032126,115.91707 L 97.164143,115.91707 L 97.230151,115.91707 L 97.362167,115.85106 L 97.428176,115.78505" style="fill:none;stroke:#000;stroke-width:.26403299px;stroke-linecap:round;stroke-linejoin:round;stroke-miterlimit:4;stroke-dasharray:none;stroke-opacity:1"/><path id="path226519" d="M 71.750967,111.6923 L 72.147016,110.96617 L 72.411049,110.24004 L 72.609074,109.51391 L 72.807099,108.72176 L 72.939115,107.92962 L 73.13714,107.13748 L 73.335165,106.34533 L 73.599198,105.55319 L 73.797222,105.02509 L 73.863231,104.43098 L 73.929239,103.90289 L 73.797222,103.30878 L 73.599198,102.51664 L 73.335165,101.65848 L 73.203148,100.73431 L 73.13714,99.942168 L 73.13714,99.546096 L 73.269156,99.216036 L 73.401173,98.885976 L 73.599198,98.68794 L 73.863231,98.489904 L 74.193272,98.35788 L 74.65533,98.35788 L 75.183396,98.423892" style="fill:none;stroke:#1f1a17;stroke-width:.26403299px;stroke-linecap:round;stroke-linejoin:round;stroke-miterlimit:4;stroke-dasharray:none;stroke-opacity:1"/><path id="path226521" d="M 70.760843,90.964536 L 70.826851,91.690668 L 70.826851,92.74686 L 70.89286,93.340968 L 70.958868,93.803052 L 71.024876,94.199124 L 71.090884,94.463172 L 71.486934,94.991268 L 71.948992,95.519364 L 72.411049,96.04746 L 72.675082,96.575556 L 72.807099,96.839604 L 73.005123,97.03764 L 73.203148,97.169664 L 73.467181,97.235676" style="fill:none;stroke:#1f1a17;stroke-width:.26403299px;stroke-linecap:round;stroke-linejoin:round;stroke-miterlimit:4;stroke-dasharray:none;stroke-opacity:1"/><path id="path226523" d="M 54.192773,38.881068 L 59.143391,38.881068 L 59.143391,39.475176 L 54.192773,39.475176 L 54.192773,38.881068 z" style="fill:none;stroke:#fff;stroke-width:.26403299px;stroke-linecap:round;stroke-linejoin:round;stroke-miterlimit:4;stroke-dasharray:none;stroke-opacity:1"/><path id="path226525" d="M 9.5051879,91.624656 L 10.099262,91.624656 L 10.099262,94.39716 L 9.5051879,94.39716 L 9.5051879,91.624656 z" style="fill:none;stroke:#fff;stroke-width:.26403299px;stroke-linecap:round;stroke-linejoin:round;stroke-miterlimit:4;stroke-dasharray:none;stroke-opacity:1"/><path id="path226527" d="M 9.4391796,127.13911 L 10.231279,127.13911 L 10.231279,129.58156 L 9.4391796,129.58156 L 9.4391796,127.13911 z" style="fill:none;stroke:#fff;stroke-width:.26403299px;stroke-linecap:round;stroke-linejoin:round;stroke-miterlimit:4;stroke-dasharray:none;stroke-opacity:1"/><path id="path226529" d="M 81.652204,98.555916 L 77.493684,113.21058" style="fill:none;stroke:#1f1a17;stroke-width:.26403299px;stroke-linecap:round;stroke-linejoin:round;stroke-miterlimit:4;stroke-dasharray:none;stroke-opacity:1"/><path id="path226531" d="M 79.869981,98.555916 L 75.711462,113.21058" style="fill:none;stroke:#1f1a17;stroke-width:.26403299px;stroke-linecap:round;stroke-linejoin:round;stroke-miterlimit:4;stroke-dasharray:none;stroke-opacity:1"/><path id="path226533" d="M 77.031627,115.05892 L 72.807099,138.29514" style="fill:none;stroke:#1f1a17;stroke-width:.26403299px;stroke-linecap:round;stroke-linejoin:round;stroke-miterlimit:4;stroke-dasharray:none;stroke-opacity:1"/><path id="path226535" d="M 75.249404,115.05892 L 71.024876,138.29514" style="fill:none;stroke:#1f1a17;stroke-width:.26403299px;stroke-linecap:round;stroke-linejoin:round;stroke-miterlimit:4;stroke-dasharray:none;stroke-opacity:1"/><path id="path226537" d="M 14.389798,53.403708 L 19.472433,50.565192 L 24.621077,55.384068 L 26.667333,57.628476 L 27.657456,59.872884 L 26.271283,60.73104 L 9.7692209,60.533004 L 9.9012374,55.978176 L 14.389798,53.403708 z" style="fill:#1f1a17;fill-rule:evenodd;fill-opacity:1;stroke:none"/><path id="path226539" d="M 14.389798,53.403708 L 19.472433,50.565192 L 24.621077,55.384068 L 26.667333,57.628476 L 27.657456,59.872884 L 26.271283,60.73104 L 9.7692209,60.533004 L 9.9012374,55.978176 L 14.389798,53.403708 z" style="fill:none;stroke:#1f1a17;stroke-width:.26403299px;stroke-linecap:round;stroke-linejoin:round;stroke-miterlimit:4;stroke-dasharray:none;stroke-opacity:1"/><path id="path226541" d="M 21.650706,48.386796 L 22.970871,47.066556 L 23.234904,47.330604 L 21.914739,48.650844 L 21.650706,48.386796 z" style="fill:none;stroke:#1f1a17;stroke-width:.26403299px;stroke-linecap:round;stroke-linejoin:round;stroke-miterlimit:4;stroke-dasharray:none;stroke-opacity:1"/><path id="path226543" d="M 16.238029,52.347516 L 19.142392,50.697216 L 19.406425,51.1593 L 16.502062,52.8096 L 16.238029,52.347516 z" style="fill:none;stroke:#1f1a17;stroke-width:.26403299px;stroke-linecap:round;stroke-linejoin:round;stroke-miterlimit:4;stroke-dasharray:none;stroke-opacity:1"/><path id="path226545" d="M 9.8352291,55.978176 L 14.191774,53.535732 L 14.455807,53.931804 L 10.363295,56.242224 L 10.363295,59.4108 L 12.013501,59.4108 L 11.947493,59.872884 L 9.8352291,59.872884 L 9.8352291,55.978176 z" style="fill:none;stroke:#1f1a17;stroke-width:.26403299px;stroke-linecap:round;stroke-linejoin:round;stroke-miterlimit:4;stroke-dasharray:none;stroke-opacity:1"/><path id="path226547" d="M 43.631453,93.605016 L 54.390797,93.605016 L 54.588822,93.671028 L 54.786847,93.73704 L 54.918863,93.803052 L 55.05088,93.935076 L 55.182896,94.0671 L 55.314913,94.199124 L 55.314913,94.39716 L 55.380921,94.595196 L 55.380921,126.61102 L 55.314913,126.80905 L 55.314913,127.00709 L 55.182896,127.13911 L 55.05088,127.33715 L 54.918863,127.40316 L 54.786847,127.53518 L 54.588822,127.6012 L 54.390797,127.6012 L 43.631453,127.6012 L 43.433428,127.6012 L 43.235403,127.53518 L 43.103387,127.40316 L 42.905362,127.33715 L 42.839354,127.13911 L 42.707337,127.00709 L 42.707337,126.80905 L 42.641329,126.61102 L 42.641329,94.595196 L 42.707337,94.39716 L 42.707337,94.199124 L 42.839354,94.0671 L 42.905362,93.935076 L 43.103387,93.803052 L 43.235403,93.73704 L 43.433428,93.671028 L 43.631453,93.605016 z" style="fill:none;stroke:#1f1a17;stroke-width:.26403299px;stroke-linecap:round;stroke-linejoin:round;stroke-miterlimit:4;stroke-dasharray:none;stroke-opacity:1"/><path id="path226549" d="M 29.439679,93.803052 L 40.661081,93.803052 L 40.991123,93.869064 L 41.255156,94.001088 L 41.387172,94.265136 L 41.45318,94.595196 L 41.321164,126.87506 L 41.255156,127.13911 L 41.123139,127.33715 L 41.057131,127.53518 L 40.925114,127.6012 L 40.793098,127.66721 L 40.595073,127.73322 L 36.634578,127.99727 L 36.436553,127.93126 L 36.238529,127.93126 L 36.106512,127.86524 L 35.974496,127.73322 L 35.776471,127.40316 L 35.710463,127.0731 L 35.644455,126.14893 L 35.512438,125.02673 L 35.44643,124.43262 L 35.314413,123.83851 L 35.182397,123.31042 L 34.984372,122.84833 L 34.654331,122.18821 L 34.32429,121.26404 L 33.862232,120.33988 L 33.400174,119.48172 L 31.28791,116.31314 L 30.16577,114.00272 L 28.977621,111.0982 L 28.449555,109.11784 L 28.251531,106.7414 L 28.64758,94.595196 L 28.713588,94.265136 L 28.911613,94.001088 L 29.109638,93.869064 L 29.439679,93.803052 z" style="fill:none;stroke:#1f1a17;stroke-width:.26403299px;stroke-linecap:round;stroke-linejoin:round;stroke-miterlimit:4;stroke-dasharray:none;stroke-opacity:1"/><path id="path226551" d="M 12.013501,62.117292 L 26.601324,62.117292 L 26.865357,62.183304 L 27.12939,62.249316 L 27.261407,62.447352 L 27.327415,62.645388 L 27.327415,91.624656 L 27.261407,91.888704 L 27.12939,92.020728 L 26.865357,92.152752 L 26.601324,92.218764 L 12.013501,92.218764 L 11.749468,92.152752 L 11.551444,92.020728 L 11.419427,91.888704 L 11.353419,91.624656 L 11.353419,62.645388 L 11.419427,62.447352 L 11.551444,62.249316 L 11.749468,62.183304 L 12.013501,62.117292 z" style="fill:none;stroke:#1f1a17;stroke-width:.26403299px;stroke-linecap:round;stroke-linejoin:round;stroke-miterlimit:4;stroke-dasharray:none;stroke-opacity:1"/><path id="path226553" d="M 29.76972,62.117292 L 40.859106,62.117292 L 41.057131,62.183304 L 41.255156,62.249316 L 41.387172,62.447352 L 41.387172,62.645388 L 41.387172,91.624656 L 41.387172,91.888704 L 41.255156,92.020728 L 41.057131,92.152752 L 40.859106,92.218764 L 29.76972,92.218764 L 29.571696,92.152752 L 29.373671,92.020728 L 29.241654,91.888704 L 29.241654,91.624656 L 29.241654,62.645388 L 29.241654,62.447352 L 29.373671,62.249316 L 29.571696,62.183304 L 29.76972,62.117292 z" style="fill:none;stroke:#1f1a17;stroke-width:.26403299px;stroke-linecap:round;stroke-linejoin:round;stroke-miterlimit:4;stroke-dasharray:none;stroke-opacity:1"/><path id="path226555" d="M 43.697461,62.117292 L 54.786847,62.117292 L 54.984871,62.183304 L 55.182896,62.249316 L 55.314913,62.447352 L 55.314913,62.645388 L 55.314913,91.624656 L 55.314913,91.888704 L 55.182896,92.020728 L 54.984871,92.152752 L 54.786847,92.218764 L 43.697461,92.218764 L 43.499436,92.152752 L 43.301411,92.020728 L 43.169395,91.888704 L 43.169395,91.624656 L 43.169395,62.645388 L 43.169395,62.447352 L 43.301411,62.249316 L 43.499436,62.183304 L 43.697461,62.117292 z" style="fill:none;stroke:#1f1a17;stroke-width:.26403299px;stroke-linecap:round;stroke-linejoin:round;stroke-miterlimit:4;stroke-dasharray:none;stroke-opacity:1"/><path id="path226557" d="M 57.955243,114.9929 L 68.318538,114.9929 L 68.516563,115.05892 L 68.714587,115.12493 L 68.846604,115.19094 L 68.97862,115.32296 L 69.110637,115.45499 L 69.176645,115.58701 L 69.242653,115.78505 L 69.242653,115.98308 L 69.242653,127.13911 L 69.242653,127.33715 L 69.176645,127.53518 L 69.110637,127.66721 L 68.97862,127.79923 L 68.846604,127.93126 L 68.714587,128.06328 L 68.516563,128.06328 L 68.318538,128.12929 L 57.955243,128.12929 L 57.757218,128.06328 L 57.559193,128.06328 L 57.427177,127.93126 L 57.29516,127.79923 L 57.163144,127.66721 L 57.031127,127.53518 L 57.031127,127.33715 L 56.965119,127.13911 L 56.965119,115.98308 L 57.031127,115.78505 L 57.031127,115.58701 L 57.163144,115.45499 L 57.29516,115.32296 L 57.427177,115.19094 L 57.559193,115.12493 L 57.757218,115.05892 L 57.955243,114.9929 z" style="fill:none;stroke:#1f1a17;stroke-width:.26403299px;stroke-linecap:round;stroke-linejoin:round;stroke-miterlimit:4;stroke-dasharray:none;stroke-opacity:1"/><path id="path226559" d="M 56.569069,93.07692 L 58.087259,93.07692 L 59.671457,93.07692 L 61.255655,93.07692 L 62.773845,93.07692 L 64.358043,93.07692 L 65.942241,93.07692 L 67.460431,93.07692 L 69.044629,93.07692 L 71.288909,98.093832 L 71.486934,98.35788 L 71.684959,98.68794 L 71.816975,99.150024 L 71.882983,99.612108 L 72.081008,100.60229 L 72.213025,101.65848 L 72.477058,102.51664 L 72.543066,103.30878 L 72.543066,104.03491 L 72.477058,104.62902 L 71.090884,109.38188 L 69.044629,113.27659 L 57.955243,113.27659 L 57.361168,113.01254 L 56.767094,112.68248 L 56.437053,111.56028 L 56.569069,93.07692 z" style="fill:none;stroke:#1f1a17;stroke-width:.26403299px;stroke-linecap:round;stroke-linejoin:round;stroke-miterlimit:4;stroke-dasharray:none;stroke-opacity:1"/><path id="path226561" d="M 57.757218,79.412436 L 68.516563,79.412436 L 68.912612,79.478448 L 69.176645,79.676484 L 69.308662,79.808508 L 69.37467,79.940532 L 69.440678,80.138568 L 69.440678,80.270592 L 69.440678,91.09656 L 69.440678,91.228584 L 69.37467,91.42662 L 69.308662,91.558644 L 69.176645,91.690668 L 68.912612,91.888704 L 68.516563,91.954716 L 57.757218,91.954716 L 57.427177,91.888704 L 57.097135,91.690668 L 57.031127,91.558644 L 56.899111,91.42662 L 56.899111,91.228584 L 56.833102,91.09656 L 56.833102,80.270592 L 56.899111,80.138568 L 56.899111,79.940532 L 57.031127,79.808508 L 57.097135,79.676484 L 57.427177,79.478448 L 57.757218,79.412436 z" style="fill:none;stroke:#1f1a17;stroke-width:.26403299px;stroke-linecap:round;stroke-linejoin:round;stroke-miterlimit:4;stroke-dasharray:none;stroke-opacity:1"/><path id="path226563" d="M 72.147016,39.145116 L 100.0025,39.145116 L 100.33254,39.211128 L 100.59657,39.27714 L 100.8606,39.475176 L 101.05863,39.739224 L 101.25665,40.069284 L 101.38867,40.465356 L 101.45468,40.861428 L 101.52069,41.2575 L 101.52069,58.354608 L 101.45468,58.816692 L 101.38867,59.212764 L 101.25665,59.608836 L 101.05863,59.872884 L 100.8606,60.136932 L 100.59657,60.334968 L 100.33254,60.466992 L 100.0025,60.533004 L 72.147016,60.533004 L 71.816975,60.466992 L 71.552942,60.334968 L 71.288909,60.136932 L 71.090884,59.872884 L 70.89286,59.608836 L 70.760843,59.212764 L 70.694835,58.816692 L 70.628827,58.354608 L 70.628827,41.2575 L 70.694835,40.861428 L 70.760843,40.465356 L 70.89286,40.069284 L 71.090884,39.739224 L 71.288909,39.475176 L 71.552942,39.27714 L 71.816975,39.211128 L 72.147016,39.145116 z" style="fill:none;stroke:#1f1a17;stroke-width:.26403299px;stroke-linecap:round;stroke-linejoin:round;stroke-miterlimit:4;stroke-dasharray:none;stroke-opacity:1"/><path id="path226565" d="M 71.486934,62.249316 L 100.39855,62.249316 L 100.66258,62.249316 L 100.8606,62.315328 L 100.99262,62.447352 L 101.19065,62.579376 L 101.32266,62.7114 L 101.38867,62.909436 L 101.45468,63.107472 L 101.52069,63.305508 L 101.52069,76.969992 L 101.45468,77.168028 L 101.38867,77.366064 L 101.32266,77.5641 L 101.19065,77.696124 L 100.99262,77.828148 L 100.8606,77.960172 L 100.66258,78.026184 L 100.39855,78.026184 L 71.486934,78.026184 L 71.288909,78.026184 L 71.090884,77.960172 L 70.89286,77.828148 L 70.760843,77.696124 L 70.628827,77.5641 L 70.49681,77.366064 L 70.430802,77.168028 L 70.430802,76.969992 L 70.430802,63.305508 L 70.430802,63.107472 L 70.49681,62.909436 L 70.628827,62.7114 L 70.760843,62.579376 L 70.89286,62.447352 L 71.090884,62.315328 L 71.288909,62.249316 L 71.486934,62.249316 z" style="fill:none;stroke:#1f1a17;stroke-width:.26403299px;stroke-linecap:round;stroke-linejoin:round;stroke-miterlimit:4;stroke-dasharray:none;stroke-opacity:1"/><path id="path226567" d="M 57.955243,62.117292 L 68.516563,62.117292 L 68.714587,62.117292 L 68.846604,62.183304 L 69.044629,62.315328 L 69.176645,62.38134 L 69.308662,62.579376 L 69.37467,62.7114 L 69.440678,62.909436 L 69.440678,63.107472 L 69.440678,76.771956 L 69.440678,76.969992 L 69.37467,77.102016 L 69.308662,77.300052 L 69.176645,77.432076 L 69.044629,77.5641 L 68.846604,77.630112 L 68.714587,77.696124 L 68.516563,77.696124 L 57.955243,77.696124 L 57.757218,77.696124 L 57.559193,77.630112 L 57.361168,77.5641 L 57.229152,77.432076 L 57.097135,77.300052 L 57.031127,77.102016 L 56.965119,76.969992 L 56.965119,76.771956 L 56.965119,63.107472 L 56.965119,62.909436 L 57.031127,62.7114 L 57.097135,62.579376 L 57.229152,62.38134 L 57.361168,62.315328 L 57.559193,62.183304 L 57.757218,62.117292 L 57.955243,62.117292 z" style="fill:none;stroke:#1f1a17;stroke-width:.26403299px;stroke-linecap:round;stroke-linejoin:round;stroke-miterlimit:4;stroke-dasharray:none;stroke-opacity:1"/><path id="path226569" d="M 71.61895,79.412436 L 98.682332,79.346424 L 98.880357,79.412436 L 98.946365,79.478448 L 98.946365,79.610472 L 98.880357,79.808508 L 98.616324,80.270592 L 98.286283,80.798688 L 97.428176,81.788868 L 96.834101,82.382976 L 94.391796,85.287504 L 93.467681,86.343696 L 91.751466,88.45608 L 90.827351,89.512272 L 89.969244,90.43644 L 89.309161,91.09656 L 88.97912,91.360608 L 71.61895,91.42662 L 71.288909,91.360608 L 70.958868,91.162572 L 70.826851,90.964536 L 70.760843,90.634476 L 70.760843,80.20458 L 70.826851,79.940532 L 70.958868,79.676484 L 71.288909,79.478448 L 71.61895,79.412436 z" style="fill:none;stroke:#1f1a17;stroke-width:.26403299px;stroke-linecap:round;stroke-linejoin:round;stroke-miterlimit:4;stroke-dasharray:none;stroke-opacity:1"/><path id="path226571" d="M 13.399675,130.63775 L 25.413176,130.63775 L 25.743217,130.63775 L 26.00725,130.83578 L 26.205275,131.03382 L 26.271283,131.29787 L 26.271283,135.78668 L 26.205275,136.05073 L 26.00725,136.31478 L 25.743217,136.4468 L 25.413176,136.51282 L 13.399675,136.51282 L 13.069633,136.4468 L 12.8056,136.31478 L 12.607576,136.05073 L 12.541567,135.78668 L 12.541567,131.29787 L 12.607576,131.03382 L 12.8056,130.83578 L 13.069633,130.63775 L 13.399675,130.63775 z" style="fill:none;stroke:#1f1a17;stroke-width:.26403299px;stroke-linecap:round;stroke-linejoin:round;stroke-miterlimit:4;stroke-dasharray:none;stroke-opacity:1"/><path id="path226573" d="M 39.142892,130.63775 L 54.456805,130.63775 L 54.918863,130.63775 L 55.248904,130.83578 L 55.380921,130.9018 L 55.512937,131.03382 L 55.578946,131.16584 L 55.578946,131.29787 L 55.578946,135.78668 L 55.578946,135.91871 L 55.512937,136.05073 L 55.380921,136.18276 L 55.248904,136.31478 L 54.918863,136.4468 L 54.456805,136.51282 L 39.142892,136.51282 L 38.746842,136.4468 L 38.416801,136.31478 L 38.284784,136.18276 L 38.152768,136.05073 L 38.08676,135.91871 L 38.08676,135.78668 L 38.08676,131.29787 L 38.08676,131.16584 L 38.152768,131.03382 L 38.284784,130.9018 L 38.416801,130.83578 L 38.746842,130.63775 L 39.142892,130.63775 z" style="fill:none;stroke:#1f1a17;stroke-width:.26403299px;stroke-linecap:round;stroke-linejoin:round;stroke-miterlimit:4;stroke-dasharray:none;stroke-opacity:1"/><path id="path226575" d="M 12.871609,94.001088 L 26.667333,94.0671 L 26.931366,94.0671 L 27.12939,94.199124 L 27.195399,94.39716 L 27.261407,94.661208 L 27.261407,95.189304 L 27.261407,95.783412 L 26.931366,108.25968 L 27.657456,111.42826 L 28.449555,114.20076 L 29.901737,116.77523 L 31.28791,119.67976 L 32.476059,121.46208 L 33.92824,124.36661 L 34.456306,126.74304 L 34.522314,127.0731 L 34.522314,127.40316 L 34.456306,127.73322 L 34.32429,128.06328 L 33.92824,128.78941 L 33.466182,129.38352 L 32.938116,129.97763 L 32.41005,130.3737 L 32.212026,130.50572 L 31.947993,130.63775 L 31.749968,130.63775 L 31.617951,130.63775 L 26.535316,129.18548 L 13.663708,127.6012 L 13.333666,127.53518 L 13.003625,127.46917 L 12.739592,127.33715 L 12.409551,127.20512 L 12.145518,127.00709 L 11.947493,126.80905 L 11.815477,126.545 L 11.749468,126.28096 L 11.419427,95.453352 L 11.485435,95.123292 L 11.551444,94.859244 L 11.68346,94.661208 L 11.881485,94.39716 L 12.07951,94.265136 L 12.343543,94.133112 L 12.607576,94.001088 L 12.871609,94.001088 z" style="fill:none;stroke:#1f1a17;stroke-width:.26403299px;stroke-linecap:round;stroke-linejoin:round;stroke-miterlimit:4;stroke-dasharray:none;stroke-opacity:1"/><path id="path226577" d="M 27.261407,39.211128 L 53.796723,39.145116 L 54.060756,39.145116 L 54.390797,39.27714 L 54.65483,39.409164 L 54.852855,39.6072 L 55.05088,39.805236 L 55.182896,40.069284 L 55.248904,40.333332 L 55.314913,40.663392 L 55.314913,59.212764 L 55.248904,59.542824 L 55.182896,59.806872 L 55.05088,60.07092 L 54.852855,60.268956 L 54.65483,60.466992 L 54.390797,60.599016 L 54.060756,60.73104 L 53.796723,60.73104 L 29.835729,60.665028 L 29.571696,60.599016 L 29.307663,60.466992 L 29.109638,60.268956 L 28.977621,60.004908 L 28.977621,59.74086 L 28.977621,59.542824 L 29.04363,59.4108 L 29.109638,59.344788 L 29.241654,59.344788 L 29.373671,59.278776 L 33.004125,59.344788 L 33.202149,54.261864 L 31.221902,53.997816 L 30.429803,52.875612 L 27.855481,49.244952 L 25.281159,46.604472 L 24.555069,43.963992 L 24.88511,42.379704 L 25.875234,41.125476 L 26.205275,40.531368 L 26.469308,39.93726 L 26.601324,39.6072 L 26.799349,39.409164 L 26.997374,39.27714 L 27.261407,39.211128 z" style="fill:none;stroke:#1f1a17;stroke-width:.26403299px;stroke-linecap:round;stroke-linejoin:round;stroke-miterlimit:4;stroke-dasharray:none;stroke-opacity:1"/><path id="path226579" d="M 57.559193,39.145116 L 68.912612,39.145116 L 69.044629,39.211128 L 69.176645,39.27714 L 69.242653,39.475176 L 69.308662,39.739224 L 69.440678,40.465356 L 69.506686,41.2575 L 69.506686,58.354608 L 69.440678,59.212764 L 69.308662,59.872884 L 69.242653,60.136932 L 69.176645,60.334968 L 69.044629,60.466992 L 68.912612,60.533004 L 57.559193,60.533004 L 57.427177,60.466992 L 57.361168,60.334968 L 57.229152,60.136932 L 57.163144,59.872884 L 57.031127,59.212764 L 56.965119,58.354608 L 56.965119,41.2575 L 57.031127,40.465356 L 57.163144,39.739224 L 57.229152,39.475176 L 57.361168,39.27714 L 57.427177,39.211128 L 57.559193,39.145116 z" style="fill:none;stroke:#1f1a17;stroke-width:.26403299px;stroke-linecap:round;stroke-linejoin:round;stroke-miterlimit:4;stroke-dasharray:none;stroke-opacity:1"/><path id="path226581" d="M 77.163643,115.71904 L 102.51081,115.71904 L 102.51081,136.18276 L 77.163643,136.18276 L 77.163643,115.71904 z" style="fill:none;stroke:#1f1a17;stroke-width:.26403299px;stroke-linecap:round;stroke-linejoin:round;stroke-miterlimit:4;stroke-dasharray:none;stroke-opacity:1"/><path id="path226583" d="M 81.784221,99.150024 L 98.550316,99.150024 L 98.550316,112.68248 L 81.784221,112.68248 L 81.784221,99.150024 z" style="fill:none;stroke:#1f1a17;stroke-width:.26403299px;stroke-linecap:round;stroke-linejoin:round;stroke-miterlimit:4;stroke-dasharray:none;stroke-opacity:1"/><path id="path226585" d="M 200.40104,85.15548 L 200.40104,121.66012 L 201.72121,121.66012 L 201.72121,85.15548 z" style="fill:#1f1a17;fill-rule:nonzero;fill-opacity:1;stroke:none"/><path id="path226587" d="M 201.06113,77.366064 L 196.90261,85.551552 L 205.15364,85.551552 L 201.06113,77.366064 z" style="fill:#1f1a17;fill-rule:evenodd;fill-opacity:1;stroke:none"/><path id="path226589" d="M 710.11674,17.49318 L 809.06311,17.49318 L 809.06311,92.152752 L 710.11674,92.152752 L 710.11674,17.49318 z" style="fill:none;stroke:#1f1a17;stroke-width:.26403299px;stroke-linecap:round;stroke-linejoin:round;stroke-miterlimit:4;stroke-dasharray:none;stroke-opacity:1"/><path id="path226591" d="M 192.8761,272.16748 L 399.2839,272.16748 L 399.2839,274.80796 L 192.8761,274.80796 L 192.8761,272.16748 z M 399.2839,272.16748 L 400.60406,272.16748 L 400.60406,273.48772 L 399.2839,273.48772 L 399.2839,272.16748 z M 400.60406,273.48772 L 400.60406,337.98144 L 397.96373,337.98144 L 397.96373,273.48772 L 400.60406,273.48772 z M 400.60406,337.98144 L 400.60406,339.30168 L 399.2839,339.30168 L 399.2839,337.98144 L 400.60406,337.98144 z M 399.2839,339.30168 L 192.8761,339.30168 L 192.8761,336.59519 L 399.2839,336.59519 L 399.2839,339.30168 z M 192.8761,339.30168 L 191.55594,339.30168 L 191.55594,337.98144 L 192.8761,337.98144 L 192.8761,339.30168 z M 191.55594,337.98144 L 191.55594,273.48772 L 194.19627,273.48772 L 194.19627,337.98144 L 191.55594,337.98144 z M 191.55594,273.48772 L 191.55594,272.16748 L 192.8761,272.16748 L 192.8761,273.48772 L 191.55594,273.48772 z" style="fill:#1f1a17;fill-rule:nonzero;fill-opacity:1;stroke:none"/><path id="path226593" d="M 192.8761,336.59519 L 399.2839,336.59519 L 399.2839,339.30168 L 192.8761,339.30168 L 192.8761,336.59519 z M 399.2839,336.59519 L 400.60406,336.59519 L 400.60406,337.98144 L 399.2839,337.98144 L 399.2839,336.59519 z M 400.60406,337.98144 L 400.60406,402.40915 L 397.96373,402.40915 L 397.96373,337.98144 L 400.60406,337.98144 z M 400.60406,402.40915 L 400.60406,403.7954 L 399.2839,403.7954 L 399.2839,402.40915 L 400.60406,402.40915 z M 399.2839,403.7954 L 192.8761,403.7954 L 192.8761,401.08891 L 399.2839,401.08891 L 399.2839,403.7954 z M 192.8761,403.7954 L 191.55594,403.7954 L 191.55594,402.40915 L 192.8761,402.40915 L 192.8761,403.7954 z M 191.55594,402.40915 L 191.55594,337.98144 L 194.19627,337.98144 L 194.19627,402.40915 L 191.55594,402.40915 z M 191.55594,337.98144 L 191.55594,336.59519 L 192.8761,336.59519 L 192.8761,337.98144 L 191.55594,337.98144 z" style="fill:#1f1a17;fill-rule:nonzero;fill-opacity:1;stroke:none"/><path id="path226595" d="M 192.8761,401.08891 L 399.2839,401.08891 L 399.2839,403.7954 L 192.8761,403.7954 L 192.8761,401.08891 z M 399.2839,401.08891 L 400.60406,401.08891 L 400.60406,402.40915 L 399.2839,402.40915 L 399.2839,401.08891 z M 400.60406,402.40915 L 400.60406,466.90288 L 397.96373,466.90288 L 397.96373,402.40915 L 400.60406,402.40915 z M 400.60406,466.90288 L 400.60406,468.22312 L 399.2839,468.22312 L 399.2839,466.90288 L 400.60406,466.90288 z M 399.2839,468.22312 L 192.8761,468.22312 L 192.8761,465.58264 L 399.2839,465.58264 L 399.2839,468.22312 z M 192.8761,468.22312 L 191.55594,468.22312 L 191.55594,466.90288 L 192.8761,466.90288 L 192.8761,468.22312 z M 191.55594,466.90288 L 191.55594,402.40915 L 194.19627,402.40915 L 194.19627,466.90288 L 191.55594,466.90288 z M 191.55594,402.40915 L 191.55594,401.08891 L 192.8761,401.08891 L 192.8761,402.40915 L 191.55594,402.40915 z" style="fill:#1f1a17;fill-rule:nonzero;fill-opacity:1;stroke:none"/><path id="path226597" d="M 192.8761,465.58264 L 399.2839,465.58264 L 399.2839,468.22312 L 192.8761,468.22312 L 192.8761,465.58264 z M 399.2839,465.58264 L 400.60406,465.58264 L 400.60406,466.90288 L 399.2839,466.90288 L 399.2839,465.58264 z M 400.60406,466.90288 L 400.60406,531.3966 L 397.96373,531.3966 L 397.96373,466.90288 L 400.60406,466.90288 z M 400.60406,531.3966 L 400.60406,532.71684 L 399.2839,532.71684 L 399.2839,531.3966 L 400.60406,531.3966 z M 399.2839,532.71684 L 192.8761,532.71684 L 192.8761,530.07636 L 399.2839,530.07636 L 399.2839,532.71684 z M 192.8761,532.71684 L 191.55594,532.71684 L 191.55594,531.3966 L 192.8761,531.3966 L 192.8761,532.71684 z M 191.55594,531.3966 L 191.55594,466.90288 L 194.19627,466.90288 L 194.19627,531.3966 L 191.55594,531.3966 z M 191.55594,466.90288 L 191.55594,465.58264 L 192.8761,465.58264 L 192.8761,466.90288 L 191.55594,466.90288 z" style="fill:#1f1a17;fill-rule:nonzero;fill-opacity:1;stroke:none"/><path id="path226599" d="M 399.2839,272.16748 L 605.62569,272.16748 L 605.62569,274.80796 L 399.2839,274.80796 L 399.2839,272.16748 z M 605.62569,272.16748 L 607.01186,272.16748 L 607.01186,273.48772 L 605.62569,273.48772 L 605.62569,272.16748 z M 607.01186,273.48772 L 607.01186,337.98144 L 604.30552,337.98144 L 604.30552,273.48772 L 607.01186,273.48772 z M 607.01186,337.98144 L 607.01186,339.30168 L 605.62569,339.30168 L 605.62569,337.98144 L 607.01186,337.98144 z M 605.62569,339.30168 L 399.2839,339.30168 L 399.2839,336.59519 L 605.62569,336.59519 L 605.62569,339.30168 z M 399.2839,339.30168 L 397.96373,339.30168 L 397.96373,337.98144 L 399.2839,337.98144 L 399.2839,339.30168 z M 397.96373,337.98144 L 397.96373,273.48772 L 400.60406,273.48772 L 400.60406,337.98144 L 397.96373,337.98144 z M 397.96373,273.48772 L 397.96373,272.16748 L 399.2839,272.16748 L 399.2839,273.48772 L 397.96373,273.48772 z" style="fill:#1f1a17;fill-rule:nonzero;fill-opacity:1;stroke:none"/><path id="path226601" d="M 399.2839,336.59519 L 605.62569,336.59519 L 605.62569,339.30168 L 399.2839,339.30168 L 399.2839,336.59519 z M 605.62569,336.59519 L 607.01186,336.59519 L 607.01186,337.98144 L 605.62569,337.98144 L 605.62569,336.59519 z M 607.01186,337.98144 L 607.01186,402.40915 L 604.30552,402.40915 L 604.30552,337.98144 L 607.01186,337.98144 z M 607.01186,402.40915 L 607.01186,403.7954 L 605.62569,403.7954 L 605.62569,402.40915 L 607.01186,402.40915 z M 605.62569,403.7954 L 399.2839,403.7954 L 399.2839,401.08891 L 605.62569,401.08891 L 605.62569,403.7954 z M 399.2839,403.7954 L 397.96373,403.7954 L 397.96373,402.40915 L 399.2839,402.40915 L 399.2839,403.7954 z M 397.96373,402.40915 L 397.96373,337.98144 L 400.60406,337.98144 L 400.60406,402.40915 L 397.96373,402.40915 z M 397.96373,337.98144 L 397.96373,336.59519 L 399.2839,336.59519 L 399.2839,337.98144 L 397.96373,337.98144 z" style="fill:#1f1a17;fill-rule:nonzero;fill-opacity:1;stroke:none"/><path id="path226603" d="M 399.2839,401.08891 L 605.62569,401.08891 L 605.62569,403.7954 L 399.2839,403.7954 L 399.2839,401.08891 z M 605.62569,401.08891 L 607.01186,401.08891 L 607.01186,402.40915 L 605.62569,402.40915 L 605.62569,401.08891 z M 607.01186,402.40915 L 607.01186,466.90288 L 604.30552,466.90288 L 604.30552,402.40915 L 607.01186,402.40915 z M 607.01186,466.90288 L 607.01186,468.22312 L 605.62569,468.22312 L 605.62569,466.90288 L 607.01186,466.90288 z M 605.62569,468.22312 L 399.2839,468.22312 L 399.2839,465.58264 L 605.62569,465.58264 L 605.62569,468.22312 z M 399.2839,468.22312 L 397.96373,468.22312 L 397.96373,466.90288 L 399.2839,466.90288 L 399.2839,468.22312 z M 397.96373,466.90288 L 397.96373,402.40915 L 400.60406,402.40915 L 400.60406,466.90288 L 397.96373,466.90288 z M 397.96373,402.40915 L 397.96373,401.08891 L 399.2839,401.08891 L 399.2839,402.40915 L 397.96373,402.40915 z" style="fill:#1f1a17;fill-rule:nonzero;fill-opacity:1;stroke:none"/><path id="path226605" d="M 399.2839,465.58264 L 605.62569,465.58264 L 605.62569,468.22312 L 399.2839,468.22312 L 399.2839,465.58264 z M 605.62569,465.58264 L 607.01186,465.58264 L 607.01186,466.90288 L 605.62569,466.90288 L 605.62569,465.58264 z M 607.01186,466.90288 L 607.01186,531.3966 L 604.30552,531.3966 L 604.30552,466.90288 L 607.01186,466.90288 z M 607.01186,531.3966 L 607.01186,532.71684 L 605.62569,532.71684 L 605.62569,531.3966 L 607.01186,531.3966 z M 605.62569,532.71684 L 399.2839,532.71684 L 399.2839,530.07636 L 605.62569,530.07636 L 605.62569,532.71684 z M 399.2839,532.71684 L 397.96373,532.71684 L 397.96373,531.3966 L 399.2839,531.3966 L 399.2839,532.71684 z M 397.96373,531.3966 L 397.96373,466.90288 L 400.60406,466.90288 L 400.60406,531.3966 L 397.96373,531.3966 z M 397.96373,466.90288 L 397.96373,465.58264 L 399.2839,465.58264 L 399.2839,466.90288 L 397.96373,466.90288 z" style="fill:#1f1a17;fill-rule:nonzero;fill-opacity:1;stroke:none"/><path id="path226607" d="M 192.8761,656.09327 L 399.2839,656.09327 L 399.2839,658.79976 L 192.8761,658.79976 L 192.8761,656.09327 z M 399.2839,656.09327 L 400.60406,656.09327 L 400.60406,657.41351 L 399.2839,657.41351 L 399.2839,656.09327 z M 400.60406,657.41351 L 400.60406,721.90723 L 397.96373,721.90723 L 397.96373,657.41351 L 400.60406,657.41351 z M 400.60406,721.90723 L 400.60406,723.22747 L 399.2839,723.22747 L 399.2839,721.90723 L 400.60406,721.90723 z M 399.2839,723.22747 L 192.8761,723.22747 L 192.8761,720.58699 L 399.2839,720.58699 L 399.2839,723.22747 z M 192.8761,723.22747 L 191.55594,723.22747 L 191.55594,721.90723 L 192.8761,721.90723 L 192.8761,723.22747 z M 191.55594,721.90723 L 191.55594,657.41351 L 194.19627,657.41351 L 194.19627,721.90723 L 191.55594,721.90723 z M 191.55594,657.41351 L 191.55594,656.09327 L 192.8761,656.09327 L 192.8761,657.41351 L 191.55594,657.41351 z" style="fill:#1f1a17;fill-rule:nonzero;fill-opacity:1;stroke:none"/><path id="path226609" d="M 192.8761,720.58699 L 399.2839,720.58699 L 399.2839,723.22747 L 192.8761,723.22747 L 192.8761,720.58699 z M 399.2839,720.58699 L 400.60406,720.58699 L 400.60406,721.90723 L 399.2839,721.90723 L 399.2839,720.58699 z M 400.60406,721.90723 L 400.60406,786.40096 L 397.96373,786.40096 L 397.96373,721.90723 L 400.60406,721.90723 z M 400.60406,786.40096 L 400.60406,787.7212 L 399.2839,787.7212 L 399.2839,786.40096 L 400.60406,786.40096 z M 399.2839,787.7212 L 192.8761,787.7212 L 192.8761,785.08072 L 399.2839,785.08072 L 399.2839,787.7212 z M 192.8761,787.7212 L 191.55594,787.7212 L 191.55594,786.40096 L 192.8761,786.40096 L 192.8761,787.7212 z M 191.55594,786.40096 L 191.55594,721.90723 L 194.19627,721.90723 L 194.19627,786.40096 L 191.55594,786.40096 z M 191.55594,721.90723 L 191.55594,720.58699 L 192.8761,720.58699 L 192.8761,721.90723 L 191.55594,721.90723 z" style="fill:#1f1a17;fill-rule:nonzero;fill-opacity:1;stroke:none"/><path id="path226611" d="M 192.8761,785.08072 L 399.2839,785.08072 L 399.2839,787.7212 L 192.8761,787.7212 L 192.8761,785.08072 z M 399.2839,785.08072 L 400.60406,785.08072 L 400.60406,786.40096 L 399.2839,786.40096 L 399.2839,785.08072 z M 400.60406,786.40096 L 400.60406,850.89468 L 397.96373,850.89468 L 397.96373,786.40096 L 400.60406,786.40096 z M 400.60406,850.89468 L 400.60406,852.21492 L 399.2839,852.21492 L 399.2839,850.89468 L 400.60406,850.89468 z M 399.2839,852.21492 L 192.8761,852.21492 L 192.8761,849.57444 L 399.2839,849.57444 L 399.2839,852.21492 z M 192.8761,852.21492 L 191.55594,852.21492 L 191.55594,850.89468 L 192.8761,850.89468 L 192.8761,852.21492 z M 191.55594,850.89468 L 191.55594,786.40096 L 194.19627,786.40096 L 194.19627,850.89468 L 191.55594,850.89468 z M 191.55594,786.40096 L 191.55594,785.08072 L 192.8761,785.08072 L 192.8761,786.40096 L 191.55594,786.40096 z" style="fill:#1f1a17;fill-rule:nonzero;fill-opacity:1;stroke:none"/><path id="path226613" d="M 192.8761,849.57444 L 399.2839,849.57444 L 399.2839,852.21492 L 192.8761,852.21492 L 192.8761,849.57444 z M 399.2839,849.57444 L 400.60406,849.57444 L 400.60406,850.89468 L 399.2839,850.89468 L 399.2839,849.57444 z M 400.60406,850.89468 L 400.60406,915.3884 L 397.96373,915.3884 L 397.96373,850.89468 L 400.60406,850.89468 z M 400.60406,915.3884 L 400.60406,916.70864 L 399.2839,916.70864 L 399.2839,915.3884 L 400.60406,915.3884 z M 399.2839,916.70864 L 192.8761,916.70864 L 192.8761,914.00215 L 399.2839,914.00215 L 399.2839,916.70864 z M 192.8761,916.70864 L 191.55594,916.70864 L 191.55594,915.3884 L 192.8761,915.3884 L 192.8761,916.70864 z M 191.55594,915.3884 L 191.55594,850.89468 L 194.19627,850.89468 L 194.19627,915.3884 L 191.55594,915.3884 z M 191.55594,850.89468 L 191.55594,849.57444 L 192.8761,849.57444 L 192.8761,850.89468 L 191.55594,850.89468 z" style="fill:#1f1a17;fill-rule:nonzero;fill-opacity:1;stroke:none"/><path id="path226615" d="M 399.2839,656.09327 L 605.62569,656.09327 L 605.62569,658.79976 L 399.2839,658.79976 L 399.2839,656.09327 z M 605.62569,656.09327 L 607.01186,656.09327 L 607.01186,657.41351 L 605.62569,657.41351 L 605.62569,656.09327 z M 607.01186,657.41351 L 607.01186,721.90723 L 604.30552,721.90723 L 604.30552,657.41351 L 607.01186,657.41351 z M 607.01186,721.90723 L 607.01186,723.22747 L 605.62569,723.22747 L 605.62569,721.90723 L 607.01186,721.90723 z M 605.62569,723.22747 L 399.2839,723.22747 L 399.2839,720.58699 L 605.62569,720.58699 L 605.62569,723.22747 z M 399.2839,723.22747 L 397.96373,723.22747 L 397.96373,721.90723 L 399.2839,721.90723 L 399.2839,723.22747 z M 397.96373,721.90723 L 397.96373,657.41351 L 400.60406,657.41351 L 400.60406,721.90723 L 397.96373,721.90723 z M 397.96373,657.41351 L 397.96373,656.09327 L 399.2839,656.09327 L 399.2839,657.41351 L 397.96373,657.41351 z" style="fill:#1f1a17;fill-rule:nonzero;fill-opacity:1;stroke:none"/><path id="path226617" d="M 399.2839,720.58699 L 605.62569,720.58699 L 605.62569,723.22747 L 399.2839,723.22747 L 399.2839,720.58699 z M 605.62569,720.58699 L 607.01186,720.58699 L 607.01186,721.90723 L 605.62569,721.90723 L 605.62569,720.58699 z M 607.01186,721.90723 L 607.01186,786.40096 L 604.30552,786.40096 L 604.30552,721.90723 L 607.01186,721.90723 z M 607.01186,786.40096 L 607.01186,787.7212 L 605.62569,787.7212 L 605.62569,786.40096 L 607.01186,786.40096 z M 605.62569,787.7212 L 399.2839,787.7212 L 399.2839,785.08072 L 605.62569,785.08072 L 605.62569,787.7212 z M 399.2839,787.7212 L 397.96373,787.7212 L 397.96373,786.40096 L 399.2839,786.40096 L 399.2839,787.7212 z M 397.96373,786.40096 L 397.96373,721.90723 L 400.60406,721.90723 L 400.60406,786.40096 L 397.96373,786.40096 z M 397.96373,721.90723 L 397.96373,720.58699 L 399.2839,720.58699 L 399.2839,721.90723 L 397.96373,721.90723 z" style="fill:#1f1a17;fill-rule:nonzero;fill-opacity:1;stroke:none"/><path id="path226619" d="M 399.2839,785.08072 L 605.62569,785.08072 L 605.62569,787.7212 L 399.2839,787.7212 L 399.2839,785.08072 z M 605.62569,785.08072 L 607.01186,785.08072 L 607.01186,786.40096 L 605.62569,786.40096 L 605.62569,785.08072 z M 607.01186,786.40096 L 607.01186,850.89468 L 604.30552,850.89468 L 604.30552,786.40096 L 607.01186,786.40096 z M 607.01186,850.89468 L 607.01186,852.21492 L 605.62569,852.21492 L 605.62569,850.89468 L 607.01186,850.89468 z M 605.62569,852.21492 L 399.2839,852.21492 L 399.2839,849.57444 L 605.62569,849.57444 L 605.62569,852.21492 z M 399.2839,852.21492 L 397.96373,852.21492 L 397.96373,850.89468 L 399.2839,850.89468 L 399.2839,852.21492 z M 397.96373,850.89468 L 397.96373,786.40096 L 400.60406,786.40096 L 400.60406,850.89468 L 397.96373,850.89468 z M 397.96373,786.40096 L 397.96373,785.08072 L 399.2839,785.08072 L 399.2839,786.40096 L 397.96373,786.40096 z" style="fill:#1f1a17;fill-rule:nonzero;fill-opacity:1;stroke:none"/><path id="path226621" d="M 399.2839,849.57444 L 605.62569,849.57444 L 605.62569,852.21492 L 399.2839,852.21492 L 399.2839,849.57444 z M 605.62569,849.57444 L 607.01186,849.57444 L 607.01186,850.89468 L 605.62569,850.89468 L 605.62569,849.57444 z M 607.01186,850.89468 L 607.01186,915.3884 L 604.30552,915.3884 L 604.30552,850.89468 L 607.01186,850.89468 z M 607.01186,915.3884 L 607.01186,916.70864 L 605.62569,916.70864 L 605.62569,915.3884 L 607.01186,915.3884 z M 605.62569,916.70864 L 399.2839,916.70864 L 399.2839,914.00215 L 605.62569,914.00215 L 605.62569,916.70864 z M 399.2839,916.70864 L 397.96373,916.70864 L 397.96373,915.3884 L 399.2839,915.3884 L 399.2839,916.70864 z M 397.96373,915.3884 L 397.96373,850.89468 L 400.60406,850.89468 L 400.60406,915.3884 L 397.96373,915.3884 z M 397.96373,850.89468 L 397.96373,849.57444 L 399.2839,849.57444 L 399.2839,850.89468 L 397.96373,850.89468 z" style="fill:#1f1a17;fill-rule:nonzero;fill-opacity:1;stroke:none"/><path id="path226623" d="M 4.9506187,143.97217 L 150.56482,143.97217 L 150.56482,256.45662 L 4.9506187,256.45662 L 4.9506187,143.97217 z" style="fill:none;stroke:#1f1a17;stroke-width:.26403299px;stroke-linecap:round;stroke-linejoin:round;stroke-miterlimit:4;stroke-dasharray:none;stroke-opacity:1"/><path id="path226625" d="M 39.274908,163.57774 L 39.274908,156.91052" style="fill:none;stroke:#24211d;stroke-width:.066008247px;stroke-linecap:round;stroke-linejoin:round;stroke-miterlimit:4;stroke-dasharray:none;stroke-opacity:1"/><path id="path226627" d="M 39.274908,149.12111 L 35.116389,157.37261 L 43.36742,157.37261 L 39.274908,149.12111 z" style="fill:#1f1a17;fill-rule:evenodd;fill-opacity:1;stroke:none"/><path id="path226629" d="M 123.43543,176.45008 L 125.08563,176.45008 L 125.08563,217.64156 L 121.85123,217.64156 L 121.85123,178.03436 L 123.43543,176.45008 z" style="fill:none;stroke:#1f1a17;stroke-width:.26403299px;stroke-linecap:round;stroke-linejoin:round;stroke-miterlimit:4;stroke-dasharray:none;stroke-opacity:1"/><path id="path226631" d="M 126.66983,179.68466 L 129.90423,179.68466 L 129.90423,220.81014 L 126.66983,220.81014 L 126.66983,179.68466 z" style="fill:none;stroke:#1f1a17;stroke-width:.26403299px;stroke-linecap:round;stroke-linejoin:round;stroke-miterlimit:4;stroke-dasharray:none;stroke-opacity:1"/><path id="path226633" d="M 131.48843,174.4037 L 132.94061,172.81942 L 134.72284,172.81942 L 134.72284,235.33278 L 126.66983,235.33278 L 126.66983,228.73158 L 128.32004,228.73158 L 128.38604,234.47462 L 129.83823,234.47462 L 129.83823,228.73158 L 131.48843,228.73158 L 131.48843,174.4037 z" style="fill:none;stroke:#1f1a17;stroke-width:.26403299px;stroke-linecap:round;stroke-linejoin:round;stroke-miterlimit:4;stroke-dasharray:none;stroke-opacity:1"/><path id="path226635" d="M 76.89961,219.22585 L 108.12151,219.22585 L 108.12151,222.46044 L 76.89961,222.46044 L 76.89961,219.22585 z" style="fill:none;stroke:#1f1a17;stroke-width:.26403299px;stroke-linecap:round;stroke-linejoin:round;stroke-miterlimit:4;stroke-dasharray:none;stroke-opacity:1"/><path id="path226637" d="M 73.599198,230.24986 L 73.599198,228.66557 L 111.42192,228.66557 L 111.42192,229.3917 L 113.07213,229.3917 L 113.07213,230.97599 L 111.42192,230.97599 L 111.42192,231.83414 L 71.948992,231.83414 L 71.948992,230.24986 L 73.599198,230.24986 z" style="fill:none;stroke:#1f1a17;stroke-width:.26403299px;stroke-linecap:round;stroke-linejoin:round;stroke-miterlimit:4;stroke-dasharray:none;stroke-opacity:1"/><path id="path226639" d="M 84.292534,183.7114 L 107.2634,183.7114 L 107.2634,186.94598 L 84.292534,186.94598 L 84.292534,183.7114 z" style="fill:none;stroke:#1f1a17;stroke-width:.26403299px;stroke-linecap:round;stroke-linejoin:round;stroke-miterlimit:4;stroke-dasharray:none;stroke-opacity:1"/><path id="path226641" d="M 77.757717,189.52045 L 79.341915,189.52045 L 79.341915,187.93616 L 80.992122,187.93616 L 80.992122,189.52045 L 82.642328,189.52045 L 82.642328,191.17075 L 84.292534,191.17075 L 84.292534,192.75504 L 107.2634,192.75504 L 107.2634,191.10474 L 108.91361,191.10474 L 108.91361,189.52045 L 110.56382,189.52045 L 110.56382,187.93616 L 113.86423,187.93616 L 113.86423,191.10474 L 112.21402,191.10474 L 112.21402,192.75504 L 110.56382,192.75504 L 110.56382,194.33933 L 108.91361,194.33933 L 108.91361,195.98963 L 82.642328,195.98963 L 82.642328,194.33933 L 80.992122,194.33933 L 80.992122,192.75504 L 79.341915,192.75504 L 79.341915,191.17075 L 77.691709,191.17075 L 77.757717,189.52045 z" style="fill:none;stroke:#1f1a17;stroke-width:.26403299px;stroke-linecap:round;stroke-linejoin:round;stroke-miterlimit:4;stroke-dasharray:none;stroke-opacity:1"/><path id="path226643" d="M 62.905861,231.50408 L 64.556068,229.9198 L 66.206274,229.9198 L 66.206274,231.50408 L 67.85648,231.50408 L 67.85648,233.08837 L 69.506686,233.08837 L 69.506686,234.73867 L 72.74109,234.73867 L 72.74109,236.32296 L 108.97962,236.32296 L 108.97962,237.90725 L 110.62983,237.90725 L 110.62983,236.32296 L 113.93024,236.32296 L 113.93024,237.90725 L 115.51444,237.90725 L 115.51444,236.32296 L 117.16464,236.32296 L 117.16464,234.73867 L 118.81485,234.73867 L 118.81485,233.08837 L 120.46505,233.08837 L 120.46505,231.50408 L 122.11526,231.50408 L 122.11526,234.73867 L 120.46505,234.73867 L 120.46505,236.32296 L 118.81485,236.32296 L 118.81485,237.90725 L 117.16464,237.90725 L 117.16464,239.55755 L 72.74109,239.55755 L 72.807099,237.90725 L 71.156893,237.90725 L 71.156893,236.32296 L 69.506686,236.32296 L 67.85648,236.32296 L 67.85648,234.73867 L 66.206274,234.73867 L 66.206274,233.08837 L 62.905861,233.08837 L 62.905861,231.50408 z" style="fill:none;stroke:#1f1a17;stroke-width:.26403299px;stroke-linecap:round;stroke-linejoin:round;stroke-miterlimit:4;stroke-dasharray:none;stroke-opacity:1"/><path id="path226645" d="M 116.96662,243.18821 L 123.50143,243.18821 L 123.50143,241.53791 L 125.15164,241.53791 L 125.15164,239.95362 L 126.80185,239.95362 L 128.45205,239.95362 L 128.45205,238.36933 L 131.75247,238.36933 L 131.75247,236.71903 L 136.70308,236.71903 L 136.70308,248.00708 L 135.05288,248.00708 L 135.05288,249.59137 L 133.40267,249.59137 L 133.40267,252.82596 L 131.75247,252.82596 L 131.75247,254.41025 L 130.10226,254.41025 L 130.10226,255.99454 L 113.6662,255.99454 L 113.6662,254.41025 L 130.10226,254.41025 L 130.10226,252.82596 L 115.31641,252.75995 L 115.31641,251.17566 L 130.10226,251.17566 L 130.10226,249.59137 L 131.75247,249.59137 L 131.75247,248.00708 L 133.40267,248.00708 L 133.40267,246.35678 L 135.05288,246.35678 L 135.05288,238.36933 L 131.75247,238.36933 L 131.75247,239.95362 L 128.45205,239.95362 L 128.45205,243.18821 L 126.80185,243.18821 L 126.80185,244.7725 L 125.15164,244.7725 L 125.15164,246.35678 L 123.50143,246.35678 L 123.50143,248.00708 L 116.96662,248.00708 L 116.96662,246.35678 L 123.50143,246.35678 L 123.50143,244.7725 L 116.96662,244.7725 L 116.96662,243.18821 z" style="fill:none;stroke:#1f1a17;stroke-width:.26403299px;stroke-linecap:round;stroke-linejoin:round;stroke-miterlimit:4;stroke-dasharray:none;stroke-opacity:1"/><path id="path226647" d="M 27.12939,210.97435 L 28.779597,210.97435 L 28.779597,212.42662 L 30.429803,212.42662 L 30.429803,210.77632 L 43.565444,210.77632 L 43.565444,214.0109 L 28.779597,214.0109 L 28.779597,217.24549 L 63.301911,217.24549 L 63.301911,220.41407 L 28.779597,220.41407 L 28.779597,219.62192 L 27.12939,219.62192 L 27.12939,217.97162 L 28.779597,217.97162 L 28.779597,217.24549 L 27.12939,217.24549 L 27.12939,214.0109 L 28.779597,214.0109 L 28.779597,212.62465 L 27.12939,212.62465 L 27.12939,210.97435 z" style="fill:none;stroke:#1f1a17;stroke-width:.26403299px;stroke-linecap:round;stroke-linejoin:round;stroke-miterlimit:4;stroke-dasharray:none;stroke-opacity:1"/><path id="path226649" d="M 48.714088,210.77632 L 71.684959,210.77632 L 71.684959,218.82978 L 68.450554,218.82978 L 68.450554,214.0109 L 50.298286,214.0109 L 50.298286,212.42662 L 48.714088,212.42662 L 48.714088,210.77632 z" style="fill:none;stroke:#1f1a17;stroke-width:.26403299px;stroke-linecap:round;stroke-linejoin:round;stroke-miterlimit:4;stroke-dasharray:none;stroke-opacity:1"/><path id="path226651" d="M 13.861732,235.13474 L 61.585696,235.13474 L 61.585696,238.30332 L 15.511939,238.30332 L 15.511939,236.71903 L 13.861732,236.71903 L 13.861732,235.13474 z" style="fill:none;stroke:#1f1a17;stroke-width:.26403299px;stroke-linecap:round;stroke-linejoin:round;stroke-miterlimit:4;stroke-dasharray:none;stroke-opacity:1"/><path id="path226653" d="M 22.508813,226.22312 L 58.681333,226.22312 L 58.681333,229.45771 L 22.508813,229.45771 L 22.508813,226.22312 z" style="fill:none;stroke:#1f1a17;stroke-width:.26403299px;stroke-linecap:round;stroke-linejoin:round;stroke-miterlimit:4;stroke-dasharray:none;stroke-opacity:1"/><path id="path226655" d="M 85.21665,244.7725 L 85.21665,243.1222 L 101.52069,243.18821 L 101.52069,244.7725 L 85.21665,244.7725 L 85.21665,246.35678 L 86.866856,246.35678 L 86.866856,248.00708 L 88.451054,247.94107 L 88.451054,249.59137 L 90.10126,249.59137 L 90.10126,251.17566 L 91.751466,251.17566 L 91.751466,252.75995 L 111.28991,252.75995 L 111.28991,254.41025 L 91.751466,254.41025 L 91.751466,252.82596 L 90.10126,252.82596 L 90.10126,251.17566 L 88.451054,251.17566 L 88.451054,249.59137 L 86.866856,249.59137 L 86.866856,248.00708 L 85.21665,248.00708 L 85.21665,246.35678 L 83.566443,246.35678 L 83.566443,244.7725 L 85.21665,244.7725 z" style="fill:none;stroke:#1f1a17;stroke-width:.26403299px;stroke-linecap:round;stroke-linejoin:round;stroke-miterlimit:4;stroke-dasharray:none;stroke-opacity:1"/><path id="path226657" d="M 93.401672,246.35678 L 101.52069,246.35678 L 101.52069,248.00708 L 93.401672,248.00708 L 93.401672,246.35678 z" style="fill:none;stroke:#1f1a17;stroke-width:.26403299px;stroke-linecap:round;stroke-linejoin:round;stroke-miterlimit:4;stroke-dasharray:none;stroke-opacity:1"/><path id="path226659" d="M 93.401672,249.59137 L 111.28991,249.59137 L 111.28991,251.17566 L 93.401672,251.17566 L 93.401672,249.59137 z" style="fill:none;stroke:#1f1a17;stroke-width:.26403299px;stroke-linecap:round;stroke-linejoin:round;stroke-miterlimit:4;stroke-dasharray:none;stroke-opacity:1"/><path id="path226661" d="M 26.601324,167.34042 L 35.116389,167.34042 L 35.116389,169.12274 L 26.601324,169.12274 L 26.601324,167.34042 z" style="fill:none;stroke:#1f1a17;stroke-width:.26403299px;stroke-linecap:round;stroke-linejoin:round;stroke-miterlimit:4;stroke-dasharray:none;stroke-opacity:1"/><path id="path226663" d="M 36.370545,167.34042 L 44.951618,167.34042 L 44.951618,169.12274 L 36.370545,169.12274 L 36.370545,167.34042 z" style="fill:none;stroke:#1f1a17;stroke-width:.26403299px;stroke-linecap:round;stroke-linejoin:round;stroke-miterlimit:4;stroke-dasharray:none;stroke-opacity:1"/><path id="path226665" d="M 46.205774,167.34042 L 54.720838,167.34042 L 54.720838,169.12274 L 46.205774,169.12274 L 46.205774,167.34042 z" style="fill:none;stroke:#1f1a17;stroke-width:.26403299px;stroke-linecap:round;stroke-linejoin:round;stroke-miterlimit:4;stroke-dasharray:none;stroke-opacity:1"/><path id="path226667" d="M 55.974995,167.34042 L 64.556068,167.34042 L 64.556068,169.12274 L 55.974995,169.12274 L 55.974995,167.34042 z" style="fill:none;stroke:#1f1a17;stroke-width:.26403299px;stroke-linecap:round;stroke-linejoin:round;stroke-miterlimit:4;stroke-dasharray:none;stroke-opacity:1"/><path id="path226669" d="M 71.090884,175.72394 L 66.866356,168.3306 L 68.450554,167.40643 L 72.675082,174.79978 L 71.090884,175.72394 z" style="fill:none;stroke:#1f1a17;stroke-width:.26403299px;stroke-linecap:round;stroke-linejoin:round;stroke-miterlimit:4;stroke-dasharray:none;stroke-opacity:1"/><path id="path226671" d="M 80.596072,174.79978 L 84.886608,167.40643 L 86.470806,168.3306 L 82.18027,175.72394 L 80.596072,174.79978 z" style="fill:#1f1a17;fill-rule:evenodd;fill-opacity:1;stroke:none"/><path id="path226673" d="M 80.596072,174.79978 L 84.886608,167.40643 L 86.470806,168.3306 L 82.18027,175.72394 L 80.596072,174.79978 z" style="fill:none;stroke:#1f1a17;stroke-width:.26403299px;stroke-linecap:round;stroke-linejoin:round;stroke-miterlimit:4;stroke-dasharray:none;stroke-opacity:1"/><path id="path226675" d="M 72.345041,176.38406 L 80.926113,176.38406 L 80.926113,178.16639 L 72.345041,178.16639 L 72.345041,176.38406 z" style="fill:none;stroke:#1f1a17;stroke-width:.26403299px;stroke-linecap:round;stroke-linejoin:round;stroke-miterlimit:4;stroke-dasharray:none;stroke-opacity:1"/><path id="path226677" d="M 90.167268,167.34042 L 98.748341,167.34042 L 98.748341,169.12274 L 90.167268,169.12274 L 90.167268,167.34042 z" style="fill:none;stroke:#1f1a17;stroke-width:.26403299px;stroke-linecap:round;stroke-linejoin:round;stroke-miterlimit:4;stroke-dasharray:none;stroke-opacity:1"/><path id="path226679" d="M 102.84085,167.34042 L 111.35592,167.34042 L 111.35592,169.12274 L 102.84085,169.12274 L 102.84085,167.34042 z" style="fill:none;stroke:#1f1a17;stroke-width:.26403299px;stroke-linecap:round;stroke-linejoin:round;stroke-miterlimit:4;stroke-dasharray:none;stroke-opacity:1"/><path id="path226681" d="M 115.51444,167.34042 L 124.0295,167.34042 L 124.0295,169.12274 L 115.51444,169.12274 L 115.51444,167.34042 z" style="fill:none;stroke:#1f1a17;stroke-width:.26403299px;stroke-linecap:round;stroke-linejoin:round;stroke-miterlimit:4;stroke-dasharray:none;stroke-opacity:1"/><path id="path226683" d="M 126.27378,167.34042 L 134.78884,167.34042 L 134.78884,169.12274 L 126.27378,169.12274 L 126.27378,167.34042 z" style="fill:none;stroke:#1f1a17;stroke-width:.26403299px;stroke-linecap:round;stroke-linejoin:round;stroke-miterlimit:4;stroke-dasharray:none;stroke-opacity:1"/><path id="path226685" d="M 192.8761,273.4217 L 296.11301,273.4217 L 296.11301,337.91543 L 192.8761,337.91543 L 192.8761,273.4217 z" style="fill:none;stroke:#1f1a17;stroke-width:.26403299px;stroke-linecap:round;stroke-linejoin:round;stroke-miterlimit:4;stroke-dasharray:none;stroke-opacity:1"/><path id="path226687" d="M 192.8761,337.91543 L 399.2839,337.91543 L 399.2839,402.40915 L 192.8761,402.40915 L 192.8761,337.91543 z" style="fill:none;stroke:#1f1a17;stroke-width:.26403299px;stroke-linecap:round;stroke-linejoin:round;stroke-miterlimit:4;stroke-dasharray:none;stroke-opacity:1"/><path id="path226689" d="M 192.8761,402.40915 L 296.11301,402.40915 L 296.11301,466.90288 L 192.8761,466.90288 L 192.8761,402.40915 z" style="fill:none;stroke:#1f1a17;stroke-width:.26403299px;stroke-linecap:round;stroke-linejoin:round;stroke-miterlimit:4;stroke-dasharray:none;stroke-opacity:1"/><path id="path226691" d="M 192.8761,466.90288 L 399.2839,466.90288 L 399.2839,531.3966 L 192.8761,531.3966 L 192.8761,466.90288 z" style="fill:none;stroke:#1f1a17;stroke-width:.26403299px;stroke-linecap:round;stroke-linejoin:round;stroke-miterlimit:4;stroke-dasharray:none;stroke-opacity:1"/><path id="path226693" d="M 296.11301,273.4217 L 399.2839,273.4217 L 399.2839,337.91543 L 296.11301,337.91543 L 296.11301,273.4217 z" style="fill:none;stroke:#1f1a17;stroke-width:.26403299px;stroke-linecap:round;stroke-linejoin:round;stroke-miterlimit:4;stroke-dasharray:none;stroke-opacity:1"/><path id="path226695" d="M 296.11301,402.40915 L 399.2839,402.40915 L 399.2839,466.90288 L 296.11301,466.90288 L 296.11301,402.40915 z" style="fill:none;stroke:#1f1a17;stroke-width:.26403299px;stroke-linecap:round;stroke-linejoin:round;stroke-miterlimit:4;stroke-dasharray:none;stroke-opacity:1"/><path id="path226697" d="M 399.2839,273.4217 L 502.45479,273.4217 L 502.45479,337.91543 L 399.2839,337.91543 L 399.2839,273.4217 z" style="fill:none;stroke:#1f1a17;stroke-width:.26403299px;stroke-linecap:round;stroke-linejoin:round;stroke-miterlimit:4;stroke-dasharray:none;stroke-opacity:1"/><path id="path226699" d="M 399.2839,402.40915 L 502.45479,402.40915 L 502.45479,466.90288 L 399.2839,466.90288 L 399.2839,402.40915 z" style="fill:none;stroke:#1f1a17;stroke-width:.26403299px;stroke-linecap:round;stroke-linejoin:round;stroke-miterlimit:4;stroke-dasharray:none;stroke-opacity:1"/><path id="path226701" d="M 502.45479,273.4217 L 605.62569,273.4217 L 605.62569,337.91543 L 502.45479,337.91543 L 502.45479,273.4217 z" style="fill:none;stroke:#1f1a17;stroke-width:.26403299px;stroke-linecap:round;stroke-linejoin:round;stroke-miterlimit:4;stroke-dasharray:none;stroke-opacity:1"/><path id="path226703" d="M 399.2839,337.91543 L 605.62569,337.91543 L 605.62569,402.40915 L 399.2839,402.40915 L 399.2839,337.91543 z" style="fill:none;stroke:#1f1a17;stroke-width:.26403299px;stroke-linecap:round;stroke-linejoin:round;stroke-miterlimit:4;stroke-dasharray:none;stroke-opacity:1"/><path id="path226705" d="M 502.45479,402.40915 L 605.62569,402.40915 L 605.62569,466.90288 L 502.45479,466.90288 L 502.45479,402.40915 z" style="fill:none;stroke:#1f1a17;stroke-width:.26403299px;stroke-linecap:round;stroke-linejoin:round;stroke-miterlimit:4;stroke-dasharray:none;stroke-opacity:1"/><path id="path226707" d="M 399.2839,466.90288 L 605.62569,466.90288 L 605.62569,531.3966 L 399.2839,531.3966 L 399.2839,466.90288 z" style="fill:none;stroke:#1f1a17;stroke-width:.26403299px;stroke-linecap:round;stroke-linejoin:round;stroke-miterlimit:4;stroke-dasharray:none;stroke-opacity:1"/><path id="path226709" d="M 192.8761,657.41351 L 399.2839,657.41351 L 399.2839,721.90723 L 192.8761,721.90723 L 192.8761,657.41351 z" style="fill:none;stroke:#1f1a17;stroke-width:.26403299px;stroke-linecap:round;stroke-linejoin:round;stroke-miterlimit:4;stroke-dasharray:none;stroke-opacity:1"/><path id="path226711" d="M 192.8761,786.40096 L 399.2839,786.40096 L 399.2839,850.89468 L 192.8761,850.89468 L 192.8761,786.40096 z" style="fill:none;stroke:#1f1a17;stroke-width:.26403299px;stroke-linecap:round;stroke-linejoin:round;stroke-miterlimit:4;stroke-dasharray:none;stroke-opacity:1"/><path id="path226713" d="M 192.8761,850.89468 L 296.11301,850.89468 L 296.11301,915.3884 L 192.8761,915.3884 L 192.8761,850.89468 z" style="fill:none;stroke:#1f1a17;stroke-width:.26403299px;stroke-linecap:round;stroke-linejoin:round;stroke-miterlimit:4;stroke-dasharray:none;stroke-opacity:1"/><path id="path226715" d="M 296.11301,850.89468 L 399.2839,850.89468 L 399.2839,915.3884 L 296.11301,915.3884 L 296.11301,850.89468 z" style="fill:none;stroke:#1f1a17;stroke-width:.26403299px;stroke-linecap:round;stroke-linejoin:round;stroke-miterlimit:4;stroke-dasharray:none;stroke-opacity:1"/><path id="path226717" d="M 399.2839,721.90723 L 502.45479,721.90723 L 502.45479,786.40096 L 399.2839,786.40096 L 399.2839,721.90723 z" style="fill:none;stroke:#1f1a17;stroke-width:.26403299px;stroke-linecap:round;stroke-linejoin:round;stroke-miterlimit:4;stroke-dasharray:none;stroke-opacity:1"/><path id="path226719" d="M 399.2839,850.89468 L 502.45479,850.89468 L 502.45479,915.3884 L 399.2839,915.3884 L 399.2839,850.89468 z" style="fill:none;stroke:#1f1a17;stroke-width:.26403299px;stroke-linecap:round;stroke-linejoin:round;stroke-miterlimit:4;stroke-dasharray:none;stroke-opacity:1"/><path id="path226721" d="M 399.2839,657.41351 L 605.62569,657.41351 L 605.62569,721.90723 L 399.2839,721.90723 L 399.2839,657.41351 z" style="fill:none;stroke:#1f1a17;stroke-width:.26403299px;stroke-linecap:round;stroke-linejoin:round;stroke-miterlimit:4;stroke-dasharray:none;stroke-opacity:1"/><path id="path226723" d="M 502.45479,721.90723 L 605.62569,721.90723 L 605.62569,786.40096 L 502.45479,786.40096 L 502.45479,721.90723 z" style="fill:none;stroke:#1f1a17;stroke-width:.26403299px;stroke-linecap:round;stroke-linejoin:round;stroke-miterlimit:4;stroke-dasharray:none;stroke-opacity:1"/><path id="path226725" d="M 399.2839,786.40096 L 605.62569,786.40096 L 605.62569,850.89468 L 399.2839,850.89468 L 399.2839,786.40096 z" style="fill:none;stroke:#1f1a17;stroke-width:.26403299px;stroke-linecap:round;stroke-linejoin:round;stroke-miterlimit:4;stroke-dasharray:none;stroke-opacity:1"/><path id="path226727" d="M 502.45479,850.89468 L 605.62569,850.89468 L 605.62569,915.3884 L 502.45479,915.3884 L 502.45479,850.89468 z" style="fill:none;stroke:#1f1a17;stroke-width:.26403299px;stroke-linecap:round;stroke-linejoin:round;stroke-miterlimit:4;stroke-dasharray:none;stroke-opacity:1"/><path id="path226729" d="M 192.8761,721.90723 L 399.2839,721.90723 L 399.2839,786.40096 L 192.8761,786.40096 L 192.8761,721.90723 z" style="fill:none;stroke:#1f1a17;stroke-width:.26403299px;stroke-linecap:round;stroke-linejoin:round;stroke-miterlimit:4;stroke-dasharray:none;stroke-opacity:1"/><path id="path226731" d="M 4.9506187,11.750136 L 105.21715,11.750136 L 105.21715,141.52973 L 4.9506187,141.52973 L 4.9506187,11.750136 z" style="fill:none;stroke:#1f1a17;stroke-width:.26403299px;stroke-linecap:round;stroke-linejoin:round;stroke-miterlimit:4;stroke-dasharray:none;stroke-opacity:1"/><text id="text226737" x="0" y="0" transform="matrix(1.000000,-0.000000,0.000000,1.000000,220.731585,316.989624)" xml:space="preserve" style="font-size:32px;font-style:normal;font-variant:normal;font-weight:400;font-stretch:Normal;line-height:125%;letter-spacing:0;word-spacing:0;fill:#000;fill-opacity:1;stroke:none;font-family:Arial;text-align:start;text-anchor:start"><tspan id="tspan226735" x="0" y="0"><tspan id="tspan226733" dx="0" dy="0" style="fill:#1f1a17;font-size:32px;font-style:normal;font-variant:normal;font-weight:400;font-stretch:Normal;font-family:Arial">401</tspan></tspan></text><text id="text226743" x="101.125" y="0" transform="matrix(1.000000,-0.000000,0.000000,1.000000,220.731585,316.989624)" xml:space="preserve" style="font-size:32px;font-style:normal;font-variant:normal;font-weight:400;font-stretch:Normal;line-height:125%;letter-spacing:0;word-spacing:0;fill:#000;fill-opacity:1;stroke:none;font-family:Arial;text-align:start;text-anchor:start"><tspan id="tspan226741" x="101.125" y="0"><tspan id="tspan226739" dx="0" dy="0" style="fill:#1f1a17;font-size:32px;font-style:normal;font-variant:normal;font-weight:400;font-stretch:Normal;font-family:Arial">402</tspan></tspan></text><text id="text226749" x="204.164" y="0" transform="matrix(1.000000,-0.000000,0.000000,1.000000,220.731585,316.989624)" xml:space="preserve" style="font-size:32px;font-style:normal;font-variant:normal;font-weight:400;font-stretch:Normal;line-height:125%;letter-spacing:0;word-spacing:0;fill:#000;fill-opacity:1;stroke:none;font-family:Arial;text-align:start;text-anchor:start"><tspan id="tspan226747" x="204.164" y="0"><tspan id="tspan226745" dx="0" dy="0" style="fill:#1f1a17;font-size:32px;font-style:normal;font-variant:normal;font-weight:400;font-stretch:Normal;font-family:Arial">403</tspan></tspan></text><text id="text226755" x="307.4" y="0" transform="matrix(1.000000,-0.000000,0.000000,1.000000,220.731585,316.989624)" xml:space="preserve" style="font-size:32px;font-style:normal;font-variant:normal;font-weight:400;font-stretch:Normal;line-height:125%;letter-spacing:0;word-spacing:0;fill:#000;fill-opacity:1;stroke:none;font-family:Arial;text-align:start;text-anchor:start"><tspan id="tspan226753" x="307.4" y="0"><tspan id="tspan226751" dx="0" dy="0" style="fill:#1f1a17;font-size:32px;font-style:normal;font-variant:normal;font-weight:400;font-stretch:Normal;font-family:Arial">404</tspan></tspan></text><text id="text226761" x="51.618" y="64.494" transform="matrix(1.000000,-0.000000,0.000000,1.000000,220.731585,316.989624)" xml:space="preserve" style="font-size:32px;font-style:normal;font-variant:normal;font-weight:400;font-stretch:Normal;line-height:125%;letter-spacing:0;word-spacing:0;fill:#000;fill-opacity:1;stroke:none;font-family:Arial;text-align:start;text-anchor:start"><tspan id="tspan226759" x="51.618" y="64.494"><tspan id="tspan226757" dx="0" dy="0" style="fill:#1f1a17;font-size:32px;font-style:normal;font-variant:normal;font-weight:400;font-stretch:Normal;font-family:Arial">301</tspan></tspan></text><text id="text226767" x="255.848" y="64.494" transform="matrix(1.000000,-0.000000,0.000000,1.000000,220.731585,316.989624)" xml:space="preserve" style="font-size:32px;font-style:normal;font-variant:normal;font-weight:400;font-stretch:Normal;line-height:125%;letter-spacing:0;word-spacing:0;fill:#000;fill-opacity:1;stroke:none;font-family:Arial;text-align:start;text-anchor:start"><tspan id="tspan226765" x="255.848" y="64.494"><tspan id="tspan226763" dx="0" dy="0" style="fill:#1f1a17;font-size:32px;font-style:normal;font-variant:normal;font-weight:400;font-stretch:Normal;font-family:Arial">302</tspan></tspan></text><text id="text226773" x="49.374" y="448.486" transform="matrix(1.000000,-0.000000,0.000000,1.000000,220.731585,316.989624)" xml:space="preserve" style="font-size:32px;font-style:normal;font-variant:normal;font-weight:400;font-stretch:Normal;line-height:125%;letter-spacing:0;word-spacing:0;fill:#000;fill-opacity:1;stroke:none;font-family:Arial;text-align:start;text-anchor:start"><tspan id="tspan226771" x="49.374" y="448.486"><tspan id="tspan226769" dx="0" dy="0" style="fill:#1f1a17;font-size:32px;font-style:normal;font-variant:normal;font-weight:400;font-stretch:Normal;font-family:Arial">303</tspan></tspan></text><text id="text226779" x="204.098" y="448.486" transform="matrix(1.000000,-0.000000,0.000000,1.000000,220.731585,316.989624)" xml:space="preserve" style="font-size:32px;font-style:normal;font-variant:normal;font-weight:400;font-stretch:Normal;line-height:125%;letter-spacing:0;word-spacing:0;fill:#000;fill-opacity:1;stroke:none;font-family:Arial;text-align:start;text-anchor:start"><tspan id="tspan226777" x="204.098" y="448.486"><tspan id="tspan226775" dx="0" dy="0" style="fill:#1f1a17;font-size:32px;font-style:normal;font-variant:normal;font-weight:400;font-stretch:Normal;font-family:Arial">305</tspan></tspan></text><text id="text226785" x="0" y="128.987" transform="matrix(1.000000,-0.000000,0.000000,1.000000,220.731585,316.989624)" xml:space="preserve" style="font-size:32px;font-style:normal;font-variant:normal;font-weight:400;font-stretch:Normal;line-height:125%;letter-spacing:0;word-spacing:0;fill:#000;fill-opacity:1;stroke:none;font-family:Arial;text-align:start;text-anchor:start"><tspan id="tspan226783" x="0" y="128.987"><tspan id="tspan226781" dx="0" dy="0" style="fill:#1f1a17;font-size:32px;font-style:normal;font-variant:normal;font-weight:400;font-stretch:Normal;font-family:Arial">201</tspan></tspan></text><text id="text226791" x="101.125" y="128.987" transform="matrix(1.000000,-0.000000,0.000000,1.000000,220.731585,316.989624)" xml:space="preserve" style="font-size:32px;font-style:normal;font-variant:normal;font-weight:400;font-stretch:Normal;line-height:125%;letter-spacing:0;word-spacing:0;fill:#000;fill-opacity:1;stroke:none;font-family:Arial;text-align:start;text-anchor:start"><tspan id="tspan226789" x="101.125" y="128.987"><tspan id="tspan226787" dx="0" dy="0" style="fill:#1f1a17;font-size:32px;font-style:normal;font-variant:normal;font-weight:400;font-stretch:Normal;font-family:Arial">202</tspan></tspan></text><text id="text226797" x="204.164" y="128.987" transform="matrix(1.000000,-0.000000,0.000000,1.000000,220.731585,316.989624)" xml:space="preserve" style="font-size:32px;font-style:normal;font-variant:normal;font-weight:400;font-stretch:Normal;line-height:125%;letter-spacing:0;word-spacing:0;fill:#000;fill-opacity:1;stroke:none;font-family:Arial;text-align:start;text-anchor:start"><tspan id="tspan226795" x="204.164" y="128.987"><tspan id="tspan226793" dx="0" dy="0" style="fill:#1f1a17;font-size:32px;font-style:normal;font-variant:normal;font-weight:400;font-stretch:Normal;font-family:Arial">203</tspan></tspan></text><text id="text226803" x="307.4" y="128.987" transform="matrix(1.000000,-0.000000,0.000000,1.000000,220.731585,316.989624)" xml:space="preserve" style="font-size:32px;font-style:normal;font-variant:normal;font-weight:400;font-stretch:Normal;line-height:125%;letter-spacing:0;word-spacing:0;fill:#000;fill-opacity:1;stroke:none;font-family:Arial;text-align:start;text-anchor:start"><tspan id="tspan226801" x="307.4" y="128.987"><tspan id="tspan226799" dx="0" dy="0" style="fill:#1f1a17;font-size:32px;font-style:normal;font-variant:normal;font-weight:400;font-stretch:Normal;font-family:Arial">204</tspan></tspan></text><text id="text226809" x="51.618" y="193.481" transform="matrix(1.000000,-0.000000,0.000000,1.000000,220.731585,316.989624)" xml:space="preserve" style="font-size:32px;font-style:normal;font-variant:normal;font-weight:400;font-stretch:Normal;line-height:125%;letter-spacing:0;word-spacing:0;fill:#000;fill-opacity:1;stroke:none;font-family:Arial;text-align:start;text-anchor:start"><tspan id="tspan226807" x="51.618" y="193.481"><tspan id="tspan226805" dx="0" dy="0" style="fill:#1f1a17;font-size:32px;font-style:normal;font-variant:normal;font-weight:400;font-stretch:Normal;font-family:Arial">101</tspan></tspan></text><text id="text226815" x="255.848" y="193.481" transform="matrix(1.000000,-0.000000,0.000000,1.000000,220.731585,316.989624)" xml:space="preserve" style="font-size:32px;font-style:normal;font-variant:normal;font-weight:400;font-stretch:Normal;line-height:125%;letter-spacing:0;word-spacing:0;fill:#000;fill-opacity:1;stroke:none;font-family:Arial;text-align:start;text-anchor:start"><tspan id="tspan226813" x="255.848" y="193.481"><tspan id="tspan226811" dx="0" dy="0" style="fill:#1f1a17;font-size:32px;font-style:normal;font-variant:normal;font-weight:400;font-stretch:Normal;font-family:Arial">102</tspan></tspan></text><text id="text226821" x="-2.178" y="577.473" transform="matrix(1.000000,-0.000000,0.000000,1.000000,220.731585,316.989624)" xml:space="preserve" style="font-size:32px;font-style:normal;font-variant:normal;font-weight:400;font-stretch:Normal;line-height:125%;letter-spacing:0;word-spacing:0;fill:#000;fill-opacity:1;stroke:none;font-family:Arial;text-align:start;text-anchor:start"><tspan id="tspan226819" x="-2.178" y="577.473"><tspan id="tspan226817" dx="0" dy="0" style="fill:#1f1a17;font-size:32px;font-style:normal;font-variant:normal;font-weight:400;font-stretch:Normal;font-family:Arial">103</tspan></tspan></text><text id="text226827" x="101.059" y="577.473" transform="matrix(1.000000,-0.000000,0.000000,1.000000,220.731585,316.989624)" xml:space="preserve" style="font-size:32px;font-style:normal;font-variant:normal;font-weight:400;font-stretch:Normal;line-height:125%;letter-spacing:0;word-spacing:0;fill:#000;fill-opacity:1;stroke:none;font-family:Arial;text-align:start;text-anchor:start"><tspan id="tspan226825" x="101.059" y="577.473"><tspan id="tspan226823" dx="0" dy="0" style="fill:#1f1a17;font-size:32px;font-style:normal;font-variant:normal;font-weight:400;font-stretch:Normal;font-family:Arial">104</tspan></tspan></text><text id="text226833" x="49.308" y="512.979" transform="matrix(1.000000,-0.000000,0.000000,1.000000,220.731585,316.989624)" xml:space="preserve" style="font-size:32px;font-style:normal;font-variant:normal;font-weight:400;font-stretch:Normal;line-height:125%;letter-spacing:0;word-spacing:0;fill:#000;fill-opacity:1;stroke:none;font-family:Arial;text-align:start;text-anchor:start"><tspan id="tspan226831" x="49.308" y="512.979"><tspan id="tspan226829" dx="0" dy="0" style="fill:#1f1a17;font-size:32px;font-style:normal;font-variant:normal;font-weight:400;font-stretch:Normal;font-family:Arial">205</tspan></tspan></text><text id="text226839" x="255.782" y="512.979" transform="matrix(1.000000,-0.000000,0.000000,1.000000,220.731585,316.989624)" xml:space="preserve" style="font-size:32px;font-style:normal;font-variant:normal;font-weight:400;font-stretch:Normal;line-height:125%;letter-spacing:0;word-spacing:0;fill:#000;fill-opacity:1;stroke:none;font-family:Arial;text-align:start;text-anchor:start"><tspan id="tspan226837" x="255.782" y="512.979"><tspan id="tspan226835" dx="0" dy="0" style="fill:#1f1a17;font-size:32px;font-style:normal;font-variant:normal;font-weight:400;font-stretch:Normal;font-family:Arial">206</tspan></tspan></text><text id="text226845" x="204.098" y="577.473" transform="matrix(1.000000,-0.000000,0.000000,1.000000,220.731585,316.989624)" xml:space="preserve" style="font-size:32px;font-style:normal;font-variant:normal;font-weight:400;font-stretch:Normal;line-height:125%;letter-spacing:0;word-spacing:0;fill:#000;fill-opacity:1;stroke:none;font-family:Arial;text-align:start;text-anchor:start"><tspan id="tspan226843" x="204.098" y="577.473"><tspan id="tspan226841" dx="0" dy="0" style="fill:#1f1a17;font-size:32px;font-style:normal;font-variant:normal;font-weight:400;font-stretch:Normal;font-family:Arial">105</tspan></tspan></text><text id="text226851" x="307.334" y="577.473" transform="matrix(1.000000,-0.000000,0.000000,1.000000,220.731585,316.989624)" xml:space="preserve" style="font-size:32px;font-style:normal;font-variant:normal;font-weight:400;font-stretch:Normal;line-height:125%;letter-spacing:0;word-spacing:0;fill:#000;fill-opacity:1;stroke:none;font-family:Arial;text-align:start;text-anchor:start"><tspan id="tspan226849" x="307.334" y="577.473"><tspan id="tspan226847" dx="0" dy="0" style="fill:#1f1a17;font-size:32px;font-style:normal;font-variant:normal;font-weight:400;font-stretch:Normal;font-family:Arial">106</tspan></tspan></text><text id="text226857" x="307.334" y="448.486" transform="matrix(1.000000,-0.000000,0.000000,1.000000,220.731585,316.989624)" xml:space="preserve" style="font-size:32px;font-style:normal;font-variant:normal;font-weight:400;font-stretch:Normal;line-height:125%;letter-spacing:0;word-spacing:0;fill:#000;fill-opacity:1;stroke:none;font-family:Arial;text-align:start;text-anchor:start"><tspan id="tspan226855" x="307.334" y="448.486"><tspan id="tspan226853" dx="0" dy="0" style="fill:#1f1a17;font-size:32px;font-style:normal;font-variant:normal;font-weight:400;font-stretch:Normal;font-family:Arial">306</tspan></tspan></text><text id="text226863" x="49.308" y="383.992" transform="matrix(1.000000,-0.000000,0.000000,1.000000,220.731585,316.989624)" xml:space="preserve" style="font-size:32px;font-style:normal;font-variant:normal;font-weight:400;font-stretch:Normal;line-height:125%;letter-spacing:0;word-spacing:0;fill:#000;fill-opacity:1;stroke:none;font-family:Arial;text-align:start;text-anchor:start"><tspan id="tspan226861" x="49.308" y="383.992"><tspan id="tspan226859" dx="0" dy="0" style="fill:#1f1a17;font-size:32px;font-style:normal;font-variant:normal;font-weight:400;font-stretch:Normal;font-family:Arial">405</tspan></tspan></text><text id="text226869" x="255.782" y="383.992" transform="matrix(1.000000,-0.000000,0.000000,1.000000,220.731585,316.989624)" xml:space="preserve" style="font-size:32px;font-style:normal;font-variant:normal;font-weight:400;font-stretch:Normal;line-height:125%;letter-spacing:0;word-spacing:0;fill:#000;fill-opacity:1;stroke:none;font-family:Arial;text-align:start;text-anchor:start"><tspan id="tspan226867" x="255.782" y="383.992"><tspan id="tspan226865" dx="0" dy="0" style="fill:#1f1a17;font-size:32px;font-style:normal;font-variant:normal;font-weight:400;font-stretch:Normal;font-family:Arial">406</tspan></tspan></text><text id="text226879" x="-108.914" y="249.657" transform="matrix(1.000000,-0.000000,0.000000,1.000000,220.731585,316.989624)" xml:space="preserve" style="font-size:32px;font-style:normal;font-variant:normal;font-weight:400;font-stretch:Normal;line-height:1199.974388%;letter-spacing:0;word-spacing:0;fill:#000;fill-opacity:1;stroke:none;font-family:Arial;text-align:start;text-anchor:start"><tspan id="tspan226873" x="-108.914" y="249.657"><tspan id="tspan226871" dx="0" dy="0" style="fill:#1f1a17;font-size:32px;font-style:normal;font-variant:normal;font-weight:400;font-stretch:Normal;font-family:Arial">Facing Niche Wall</tspan></tspan><tspan id="tspan226877" x="-108.914" y="633.649"><tspan id="tspan226875" dx="0" dy="0" style="fill:#1f1a17;font-size:32px;font-style:normal;font-variant:normal;font-weight:400;font-stretch:Normal;font-family:Arial">Facing Urn Garden</tspan></tspan></text><text id="text226893" x="150.791" y="-288.604" transform="matrix(1.000000,-0.000000,0.000000,1.000000,220.731585,316.989624)" xml:space="preserve" style="font-size:23.625px;font-style:normal;font-variant:normal;font-weight:700;font-stretch:Normal;line-height:113.29885%;letter-spacing:0;word-spacing:0;fill:#000;fill-opacity:1;stroke:none;font-family:Arial;text-align:center;text-anchor:middle"><tspan id="tspan226883" x="150.791" y="-288.604"><tspan id="tspan226881" dx="0" dy="0" style="fill:#1f1a17;font-size:23.625px;font-style:normal;font-variant:normal;font-weight:700;font-stretch:Normal;font-family:Arial">New Greenwood Cemetery</tspan></tspan><tspan id="tspan226887" x="150.706" y="-256.853"><tspan id="tspan226885" dx="0" dy="0" style="fill:#1f1a17;font-size:29.5px;font-style:normal;font-variant:normal;font-weight:700;font-stretch:Normal;font-family:Arial">Columbarium</tspan></tspan><tspan id="tspan226891" x="150.763" y="-218.566"><tspan id="tspan226889" dx="0" dy="0" style="fill:#1f1a17;font-size:35.4375px;font-style:normal;font-variant:normal;font-weight:700;font-stretch:Normal;font-family:Arial">Section A</tspan></tspan></text><text id="text226899" x="54.787" y="-194.999" transform="matrix(1.000000,-0.000000,0.000000,1.000000,220.731585,316.989624)" xml:space="preserve" style="font-size:17.6875px;font-style:normal;font-variant:normal;font-weight:700;font-stretch:Normal;line-height:125%;letter-spacing:0;word-spacing:0;fill:#000;fill-opacity:1;stroke:none;font-family:Arial;text-align:start;text-anchor:start"><tspan id="tspan226897" x="54.787" y="-194.999"><tspan id="tspan226895" dx="0" dy="0" style="fill:#1f1a17;font-size:17.6875px;font-style:normal;font-variant:normal;font-weight:700;font-stretch:Normal;font-family:Arial">City of Sault Ste. Marie</tspan></tspan></text><text id="text226905" x="-28.714" y="-248.865" transform="matrix(1.000000,-0.000000,0.000000,1.000000,220.731585,316.989624)" xml:space="preserve" style="font-size:18.6875px;font-style:normal;font-variant:normal;font-weight:700;font-stretch:Normal;line-height:125%;letter-spacing:0;word-spacing:0;fill:#000;fill-opacity:1;stroke:none;font-family:Arial;text-align:start;text-anchor:start"><tspan id="tspan226903" x="-28.714" y="-248.865"><tspan id="tspan226901" dx="0" dy="0" style="fill:#1f1a17;font-size:18.6875px;font-style:normal;font-variant:normal;font-weight:700;font-stretch:Normal;font-family:Arial">N</tspan></tspan></text><text id="text226911" x="492.884" y="-287.878" transform="matrix(1.000000,-0.000000,0.000000,1.000000,220.731585,316.989624)" xml:space="preserve" style="font-size:9.9375px;font-style:normal;font-variant:normal;font-weight:700;font-stretch:Normal;line-height:125%;letter-spacing:0;word-spacing:0;fill:#000;fill-opacity:1;stroke:none;font-family:Arial;text-align:start;text-anchor:start"><tspan id="tspan226909" x="492.884" y="-287.878"><tspan id="tspan226907" dx="0" dy="0" style="fill:#1f1a17;font-size:9.9375px;font-style:normal;font-variant:normal;font-weight:700;font-stretch:Normal;font-family:Arial">Grave Names:</tspan></tspan></text><text id="text226917" x="518.627" y="-247.149" transform="matrix(1.000000,-0.000000,0.000000,1.000000,220.731585,316.989624)" xml:space="preserve" style="font-size:9.9375px;font-style:normal;font-variant:normal;font-weight:700;font-stretch:Normal;line-height:125%;letter-spacing:0;word-spacing:0;fill:#000;fill-opacity:1;stroke:none;font-family:Arial;text-align:start;text-anchor:start"><tspan id="tspan226915" x="518.627" y="-247.149"><tspan id="tspan226913" dx="0" dy="0" style="fill:#1f1a17;font-size:9.9375px;font-style:normal;font-variant:normal;font-weight:700;font-stretch:Normal;font-family:Arial">Section A</tspan></tspan></text><text id="text226923" x="492.884" y="-236.059" transform="matrix(1.000000,-0.000000,0.000000,1.000000,220.731585,316.989624)" xml:space="preserve" style="font-size:9.9375px;font-style:normal;font-variant:normal;font-weight:700;font-stretch:Normal;line-height:125%;letter-spacing:0;word-spacing:0;fill:#000;fill-opacity:1;stroke:none;font-family:Arial;text-align:start;text-anchor:start"><tspan id="tspan226921" x="492.884" y="-236.059"><tspan id="tspan226919" dx="0" dy="0" style="fill:#1f1a17;font-size:9.9375px;font-style:normal;font-variant:normal;font-weight:700;font-stretch:Normal;font-family:Arial">Niche 401</tspan></tspan></text><text id="text226939" x="492.884" y="-273.752" transform="matrix(1.000000,-0.000000,0.000000,1.000000,220.731585,316.989624)" xml:space="preserve" style="font-size:13.25px;font-style:normal;font-variant:normal;font-weight:700;font-stretch:Normal;line-height:111.597645%;letter-spacing:0;word-spacing:0;fill:#000;fill-opacity:1;stroke:none;font-family:Arial;text-align:start;text-anchor:start"><tspan id="tspan226933" x="492.884" y="-273.752"><tspan id="tspan226931" dx="0" dy="0" style="fill:#1f1a17;font-size:13.25px;font-style:normal;font-variant:normal;font-weight:700;font-stretch:Normal;font-family:Arial">Col-A-401</tspan></tspan><tspan id="tspan226937" x="492.884" y="-258.965"><tspan id="tspan226935" dx="0" dy="0" style="fill:#1f1a17;font-size:13.25px;font-style:normal;font-variant:normal;font-weight:700;font-stretch:Normal;font-family:Arial">Columbarium</tspan></tspan></text><text id="text226949" x="-143.289" y="-163.842" transform="matrix(1.000000,-0.000000,0.000000,1.000000,220.731585,316.989624)" xml:space="preserve" style="font-size:4.875px;font-style:normal;font-variant:normal;font-weight:700;font-stretch:Normal;line-height:112.918854%;letter-spacing:0;word-spacing:0;fill:#000;fill-opacity:1;stroke:none;font-family:Arial;text-align:center;text-anchor:middle"><tspan id="tspan226943" x="-143.289" y="-163.842"><tspan id="tspan226941" dx="0" dy="0" style="fill:#1f1a17;font-size:4.875px;font-style:normal;font-variant:normal;font-weight:700;font-stretch:Normal;font-family:Arial">Overview</tspan></tspan><tspan id="tspan226947" x="-143.251" y="-157.505"><tspan id="tspan226945" dx="0" dy="0" style="fill:#1f1a17;font-size:5.875px;font-style:normal;font-variant:normal;font-weight:700;font-stretch:Normal;font-family:Arial">Urn Garden</tspan></tspan></text><text id="text226955" x="-173.008" y="-162.72" transform="matrix(1.000000,-0.000000,0.000000,1.000000,220.731585,316.989624)" xml:space="preserve" style="font-size:3.3125px;font-style:normal;font-variant:normal;font-weight:700;font-stretch:Normal;line-height:125%;letter-spacing:0;word-spacing:0;fill:#000;fill-opacity:1;stroke:none;font-family:Arial;text-align:start;text-anchor:start"><tspan id="tspan226953" x="-173.008" y="-162.72"><tspan id="tspan226951" dx="0" dy="0" style="fill:#1f1a17;font-size:3.3125px;font-style:normal;font-variant:normal;font-weight:700;font-stretch:Normal;font-family:Arial">N</tspan></tspan></text><text id="text226961" x="-176.374" y="-291.047" transform="matrix(1.000000,-0.000000,0.000000,1.000000,220.731585,316.989624)" xml:space="preserve" style="font-size:5.25px;font-style:normal;font-variant:normal;font-weight:700;font-stretch:Normal;line-height:125%;letter-spacing:0;word-spacing:0;fill:#000;fill-opacity:1;stroke:none;font-family:Arial;text-align:start;text-anchor:start"><tspan id="tspan226959" x="-176.374" y="-291.047"><tspan id="tspan226957" dx="0" dy="0" style="fill:#1f1a17;font-size:5.25px;font-style:normal;font-variant:normal;font-weight:700;font-stretch:Normal;font-family:Arial">Overview</tspan></tspan></text><path id="path226963" d="M 27.52544,23.566284 L 27.52544,21.4539 L 27.921489,21.4539 L 28.845605,22.840152 L 28.845605,21.4539 L 29.241654,21.4539 L 29.241654,23.566284 L 28.779597,23.566284 L 27.921489,22.180032 L 27.921489,23.566284 L 27.52544,23.566284 z" style="fill:#1f1a17;fill-rule:nonzero;fill-opacity:1;stroke:none"/><path id="path226965" d="M 27.52544,23.566284 L 27.52544,21.4539 L 27.921489,21.4539 L 28.845605,22.840152 L 28.845605,21.4539 L 29.241654,21.4539 L 29.241654,23.566284 L 28.779597,23.566284 L 27.921489,22.180032 L 27.921489,23.566284 L 27.52544,23.566284 z" style="fill:none;stroke:#1f1a17;stroke-width:.26403299px;stroke-linecap:round;stroke-linejoin:round;stroke-miterlimit:4;stroke-dasharray:none;stroke-opacity:1"/></svg>